<svg width="44" height="44" viewBox="0 0 44 44" fill="none" xmlns="http://www.w3.org/2000/svg">
<path d="M43.9865 26.3036C43.9865 26.2901 43.9865 26.2762 43.9854 26.2632L43.2547 13.1113C43.2444 12.9248 43.163 12.7494 43.0273 12.621C42.8916 12.4927 42.7119 12.4211 42.5251 12.4211H35.2186C35.0318 12.4211 34.8521 12.4927 34.7164 12.621C34.5807 12.7494 34.4994 12.9248 34.489 13.1113L33.7584 26.2632C33.7576 26.2766 33.7573 26.2901 33.7573 26.3036C33.7589 27.533 34.2027 28.7208 35.0075 29.65C35.8124 30.5793 36.9247 31.1881 38.1412 31.3652V42.3781H35.2186C35.0248 42.3781 34.8389 42.455 34.7019 42.5921C34.5649 42.7291 34.4879 42.9149 34.4879 43.1087C34.4879 43.3025 34.5649 43.4884 34.7019 43.6254C34.8389 43.7624 35.0248 43.8394 35.2186 43.8394H42.5251C42.7189 43.8394 42.9048 43.7624 43.0418 43.6254C43.1788 43.4884 43.2558 43.3025 43.2558 43.1087C43.2558 42.9149 43.1788 42.7291 43.0418 42.5921C42.9048 42.455 42.7189 42.3781 42.5251 42.3781H39.6025V31.3652C40.8191 31.1881 41.9313 30.5793 42.7362 29.65C43.5411 28.7208 43.9848 27.533 43.9865 26.3036V26.3036ZM41.8339 13.8825L41.9963 16.8051H35.7474L35.9098 13.8825H41.8339ZM35.2186 26.323L35.6661 18.2664H42.0776L42.5251 26.323C42.5251 27.2919 42.1402 28.2211 41.4551 28.9062C40.77 29.5914 39.8408 29.9763 38.8719 29.9763C37.9029 29.9763 36.9737 29.5914 36.2886 28.9062C35.6035 28.2211 35.2186 27.2919 35.2186 26.323Z" fill="#087f5b"/>
<path d="M31.5661 21.9198H29.2828L29.3674 21.2858C29.3812 21.1826 29.3727 21.0777 29.3427 20.978C29.3126 20.8784 29.2616 20.7863 29.193 20.708C29.1245 20.6297 29.04 20.5669 28.9452 20.5238C28.8505 20.4808 28.7476 20.4585 28.6435 20.4585H19.8939C17.7763 17.4505 15.4975 16.1469 14.63 15.7308L14.5313 15.3628L13.3967 11.1283L12.2616 6.89357C12.3543 6.86873 12.4412 6.82588 12.5174 6.76746C12.5935 6.70904 12.6574 6.63619 12.7054 6.55307C12.7534 6.46995 12.7845 6.3782 12.797 6.28304C12.8095 6.18789 12.8032 6.09121 12.7783 5.99851L12.0218 3.17544C11.997 3.08273 11.9541 2.99581 11.8957 2.91966C11.8373 2.84351 11.7644 2.77962 11.6813 2.73163C11.5982 2.68364 11.5064 2.6525 11.4113 2.63998C11.3161 2.62747 11.2194 2.63382 11.1267 2.65868L10.5597 0.541693C10.5349 0.448982 10.4921 0.362069 10.4337 0.28592C10.3752 0.20977 10.3024 0.145877 10.2193 0.0978885C10.1362 0.0499004 10.0444 0.0187582 9.94924 0.0062408C9.85408 -0.00627659 9.75739 7.61753e-05 9.66469 0.0249362L5.43017 1.16001C5.33747 1.18484 5.25056 1.22769 5.17443 1.28612C5.09829 1.34454 5.0344 1.41739 4.98642 1.50051C4.93844 1.58363 4.90731 1.67538 4.8948 1.77053C4.88229 1.86569 4.88864 1.96237 4.91351 2.05507L5.48086 4.17242C5.38816 4.19725 5.30125 4.2401 5.22511 4.29852C5.14898 4.35695 5.08509 4.4298 5.03711 4.51292C4.98913 4.59603 4.958 4.68779 4.94549 4.78294C4.93298 4.87809 4.93933 4.97478 4.96419 5.06747L5.7207 7.89055C5.74553 7.98325 5.78838 8.07015 5.8468 8.14629C5.90523 8.22243 5.97808 8.28631 6.0612 8.33429C6.14431 8.38227 6.23607 8.41341 6.33122 8.42592C6.42637 8.43843 6.52306 8.43207 6.61575 8.40721L8.6468 15.9878L8.88499 16.8767L8.98381 17.2455C8.64396 17.7435 7.99742 18.8243 7.4814 20.4597H3.80117C3.69706 20.4597 3.59414 20.4819 3.49933 20.5249C3.40451 20.5679 3.31998 20.6307 3.2514 20.709C3.18282 20.7874 3.13177 20.8795 3.10168 20.9791C3.07158 21.0788 3.06314 21.1838 3.07691 21.287L3.16185 21.9198H0.878545C0.684763 21.9198 0.498917 21.9968 0.361893 22.1338C0.224868 22.2708 0.147888 22.4567 0.147888 22.6505V28.4957C0.147888 28.6895 0.224868 28.8753 0.361893 29.0124C0.498917 29.1494 0.684763 29.2264 0.878545 29.2264C1.07233 29.2264 1.25817 29.1494 1.3952 29.0124C1.53222 28.8753 1.6092 28.6895 1.6092 28.4957V26.3037H3.74637L5.99953 43.2055C6.02295 43.381 6.10929 43.542 6.24251 43.6586C6.37572 43.7752 6.54675 43.8395 6.7238 43.8395H25.7209C25.8979 43.8395 26.069 43.7752 26.2022 43.6586C26.3354 43.542 26.4217 43.381 26.4451 43.2055L28.6983 26.3037H30.8355V28.4957C30.8355 28.6895 30.9124 28.8753 31.0495 29.0124C31.1865 29.1494 31.3723 29.2264 31.5661 29.2264C31.7599 29.2264 31.9458 29.1494 32.0828 29.0124C32.2198 28.8753 32.2968 28.6895 32.2968 28.4957V22.6505C32.2968 22.4567 32.2198 22.2708 32.0828 22.1338C31.9458 21.9968 31.7599 21.9198 31.5661 21.9198V21.9198ZM1.6092 24.8424V23.3811H3.35629L3.5512 24.8424H1.6092ZM13.6321 16.8783C13.6711 16.903 13.7124 16.9239 13.7554 16.9407C13.7794 16.9499 15.9083 17.7913 18.0631 20.4585H9.02126C9.62478 18.7569 10.3364 17.8646 10.3436 17.8564C10.3732 17.8198 10.3992 17.7804 10.4212 17.7388L11.8516 18.2229C11.9883 18.269 12.1356 18.2736 12.2749 18.2363C12.4142 18.1989 12.5394 18.1211 12.6346 18.0128L13.6321 16.8783ZM12.3381 12.8249L12.7277 14.279L13.0181 15.3632L11.8588 16.6824L10.1951 16.1196L9.59866 13.8933L9.51509 13.5814L10.7173 13.9881C10.854 14.0343 11.0013 14.039 11.1406 14.0016C11.2799 13.9642 11.4051 13.8864 11.5003 13.778L12.3381 12.8249ZM9.33727 1.6258L9.71547 3.03725L6.8924 3.79375L6.51419 2.38203L9.33727 1.6258ZM6.56488 5.39426L10.7994 4.25955L11.1776 5.67109L6.943 6.8058L6.56488 5.39426ZM8.02711 8.02818L10.8501 7.27177L11.8835 11.1285L10.7241 12.4477L9.06053 11.885L8.02711 8.02818ZM27.6141 23.3811H9.64643C9.45264 23.3811 9.2668 23.4581 9.12977 23.5951C8.99275 23.7321 8.91577 23.918 8.91577 24.1118C8.91577 24.3055 8.99275 24.4914 9.12977 24.6284C9.2668 24.7654 9.45264 24.8424 9.64643 24.8424H27.4196L25.0815 42.3782H7.36312L5.02502 24.8424H6.7238C6.91758 24.8424 7.10343 24.7654 7.24045 24.6284C7.37748 24.4914 7.45446 24.3055 7.45446 24.1118C7.45446 23.918 7.37748 23.7321 7.24045 23.5951C7.10343 23.4581 6.91758 23.3811 6.7238 23.3811H4.83058L4.63576 21.9198H27.8089L27.6141 23.3811ZM30.8355 24.8424H28.8935L29.0884 23.3811H30.8355V24.8424Z" fill="#087f5b"/>
</svg>
