<svg width="46" height="36" viewBox="0 0 46 36" fill="none" xmlns="http://www.w3.org/2000/svg">
<path d="M35.304 19.3915C35.2893 18.8856 35.0637 18.403 34.6852 18.0672C31.4649 15.2127 27.3057 13.6406 22.9735 13.6406C18.6413 13.6406 14.4821 15.2127 11.2619 18.0672C10.8834 18.4028 10.6578 18.8854 10.6431 19.3912C10.6282 19.9002 10.827 20.3986 11.1886 20.7586L14.7277 24.2825C15.4162 24.9679 16.4964 25.0147 17.2406 24.391C18.837 23.0526 20.8731 22.3155 22.9735 22.3156C25.0741 22.3156 27.1101 23.0528 28.7065 24.391C29.0565 24.6846 29.4808 24.8297 29.904 24.8297C30.3802 24.8296 30.8548 24.6457 31.2195 24.2826L34.7585 20.7588C35.1199 20.3988 35.3188 19.9005 35.304 19.3915ZM29.906 22.9731L29.9057 22.9729C27.9741 21.3536 25.5122 20.4618 22.9735 20.4618C20.4349 20.4618 17.9729 21.3537 16.0441 22.9717L12.4999 19.4519C15.3789 16.9 19.0984 15.4946 22.9736 15.4946C26.8488 15.4946 30.5683 16.9 33.442 19.4478L29.906 22.9731Z" fill="#013F6B"/>
<path d="M25.7462 28.4243C25.0063 27.6876 24.0225 27.2817 22.9761 27.2817C21.9297 27.2817 20.9458 27.6876 20.2058 28.4243C18.6784 29.9453 18.6784 32.42 20.2059 33.9409C20.9696 34.7014 21.973 35.0816 22.9761 35.0816C23.9792 35.0816 24.9825 34.7014 25.7462 33.9409C26.4861 33.2043 26.8937 32.2245 26.8937 31.1826C26.8937 30.1406 26.4861 29.161 25.7462 28.4243ZM24.4296 32.6302C23.6282 33.4283 22.3239 33.4283 21.5224 32.6302C20.7207 31.832 20.7207 30.5334 21.5224 29.7352C21.9107 29.3485 22.4269 29.1357 22.9761 29.1357C23.5251 29.1357 24.0414 29.3486 24.4297 29.7352C24.4297 29.7353 24.4297 29.7353 24.4298 29.7353C24.8181 30.122 25.0319 30.636 25.0319 31.1828C25.0319 31.7295 24.818 32.2437 24.4296 32.6302Z" fill="#013F6B"/>
<path d="M44.4158 8.43323C32.3927 -2.81102 13.5563 -2.81111 1.53303 8.43314C1.16073 8.78122 0.951439 9.25243 0.943349 9.76015C0.935432 10.2659 1.12889 10.7414 1.48793 11.0989L5.01989 14.6157C5.73074 15.3235 6.86371 15.3457 7.59917 14.6665C11.7821 10.802 17.2424 8.67368 22.9744 8.67368C28.7063 8.67368 34.1667 10.802 38.3496 14.6665C38.7076 14.9974 39.1599 15.1618 39.6119 15.1618C40.0882 15.1618 40.5642 14.9791 40.929 14.6158L44.4609 11.099C44.8201 10.7415 45.0134 10.266 45.0055 9.76024C44.9974 9.2526 44.7881 8.78131 44.4158 8.43323ZM39.6161 13.3076C35.0877 9.12381 29.1777 6.81985 22.9745 6.81985C16.7713 6.81985 10.8613 9.1239 6.33651 13.3048L2.80765 9.78449C14.1164 -0.791461 31.8329 -0.791118 43.1413 9.78457L43.1444 9.78809L39.6161 13.3076Z" fill="#013F6B"/>
</svg>
