<svg width="46" height="49" viewBox="0 0 46 49" fill="none" xmlns="http://www.w3.org/2000/svg">
<path d="M11.5525 19.5834H13.1844V21.2153H11.5525V19.5834Z" fill="#087f5b"/>
<path d="M16.447 19.5834H18.079V21.2153H16.447V19.5834Z" fill="#087f5b"/>
<path d="M21.3416 19.5834H22.9735V21.2153H21.3416V19.5834Z" fill="#087f5b"/>
<path d="M26.24 19.5834H27.8719V21.2153H26.24V19.5834Z" fill="#087f5b"/>
<path d="M31.1345 19.5834H32.7665V21.2153H31.1345V19.5834Z" fill="#087f5b"/>
<path d="M11.5525 22.8473H13.1844V24.4792H11.5525V22.8473Z" fill="#087f5b"/>
<path d="M6.65405 19.5834H8.286V21.2153H6.65405V19.5834Z" fill="#087f5b"/>
<path d="M6.65405 22.8473H8.286V24.4792H6.65405V22.8473Z" fill="#087f5b"/>
<path d="M16.447 22.8473H18.079V24.4792H16.447V22.8473Z" fill="#087f5b"/>
<path d="M21.3416 22.8473H22.9735V24.4792H21.3416V22.8473Z" fill="#087f5b"/>
<path d="M26.24 22.8473H27.8719V24.4792H26.24V22.8473Z" fill="#087f5b"/>
<path d="M31.1345 22.8473H32.7665V24.4792H31.1345V22.8473Z" fill="#087f5b"/>
<path d="M11.5525 26.1112H13.1844V27.7432H11.5525V26.1112Z" fill="#087f5b"/>
<path d="M6.65405 26.1112H8.286V27.7432H6.65405V26.1112Z" fill="#087f5b"/>
<path d="M6.65405 29.3751H8.286V31.0071H6.65405V29.3751Z" fill="#087f5b"/>
<path d="M6.65405 32.639H8.286V34.271H6.65405V32.639Z" fill="#087f5b"/>
<path d="M6.65405 35.903H8.286V37.5349H6.65405V35.903Z" fill="#087f5b"/>
<path d="M16.447 26.1112H18.079V27.7432H16.447V26.1112Z" fill="#087f5b"/>
<path d="M21.3416 26.1112H22.9735V27.7432H21.3416V26.1112Z" fill="#087f5b"/>
<path d="M26.24 26.1112H27.8719V27.7432H26.24V26.1112Z" fill="#087f5b"/>
<path d="M31.1345 26.1112H32.7665V27.7432H31.1345V26.1112Z" fill="#087f5b"/>
<path d="M24.6072 46.5105C24.6072 46.9947 24.7507 47.468 25.0197 47.8705C25.2887 48.2731 25.671 48.5869 26.1183 48.7721C26.5656 48.9574 27.0578 49.0059 27.5327 48.9114C28.0075 48.817 28.4437 48.5838 28.786 48.2415C29.1284 47.8991 29.3615 47.463 29.456 46.9881C29.5504 46.5133 29.502 46.0211 29.3167 45.5738C29.1314 45.1265 28.8177 44.7442 28.4151 44.4752C28.0125 44.2062 27.5393 44.0626 27.0551 44.0626C26.4061 44.0634 25.7839 44.3215 25.325 44.7804C24.866 45.2393 24.6079 45.8615 24.6072 46.5105V46.5105ZM27.0551 45.6946C27.2165 45.6946 27.3742 45.7424 27.5084 45.8321C27.6426 45.9217 27.7472 46.0492 27.809 46.1983C27.8707 46.3474 27.8869 46.5115 27.8554 46.6697C27.8239 46.828 27.7462 46.9734 27.6321 47.0875C27.518 47.2016 27.3726 47.2794 27.2143 47.3108C27.056 47.3423 26.8919 47.3262 26.7428 47.2644C26.5937 47.2026 26.4663 47.0981 26.3766 46.9639C26.287 46.8297 26.2391 46.6719 26.2391 46.5105C26.2394 46.2942 26.3254 46.0868 26.4784 45.9338C26.6314 45.7809 26.8388 45.6948 27.0551 45.6946V45.6946Z" fill="#087f5b"/>
<path d="M0.943115 40.7988C0.943115 41.2829 1.08668 41.7562 1.35567 42.1588C1.62465 42.5613 2.00696 42.8751 2.45426 43.0604C2.90156 43.2457 3.39376 43.2941 3.86861 43.1997C4.34346 43.1052 4.77964 42.8721 5.12199 42.5297C5.46434 42.1874 5.69748 41.7512 5.79193 41.2764C5.88638 40.8015 5.83791 40.3093 5.65263 39.862C5.46735 39.4147 5.1536 39.0324 4.75104 38.7634C4.34848 38.4944 3.8752 38.3509 3.39104 38.3509C2.74203 38.3516 2.11982 38.6097 1.6609 39.0686C1.20198 39.5276 0.943844 40.1498 0.943115 40.7988V40.7988ZM4.20702 40.7988C4.20702 40.9602 4.15916 41.1179 4.0695 41.2521C3.97984 41.3863 3.8524 41.4909 3.7033 41.5526C3.5542 41.6144 3.39014 41.6306 3.23185 41.5991C3.07357 41.5676 2.92818 41.4899 2.81406 41.3758C2.69994 41.2617 2.62223 41.1163 2.59074 40.958C2.55926 40.7997 2.57542 40.6356 2.63718 40.4865C2.69894 40.3374 2.80352 40.21 2.93771 40.1203C3.0719 40.0307 3.22966 39.9828 3.39104 39.9828C3.60738 39.9831 3.81478 40.0691 3.96775 40.2221C4.12073 40.375 4.20677 40.5825 4.20702 40.7988Z" fill="#087f5b"/>
<path d="M30.3181 31.823C30.3181 32.3072 30.4617 32.7805 30.7307 33.183C30.9996 33.5856 31.382 33.8994 31.8293 34.0846C32.2766 34.2699 32.7688 34.3184 33.2436 34.2239C33.7185 34.1295 34.1546 33.8963 34.497 33.554C34.8393 33.2116 35.0725 32.7755 35.1669 32.3006C35.2614 31.8258 35.2129 31.3336 35.0276 30.8863C34.8424 30.439 34.5286 30.0567 34.126 29.7877C33.7235 29.5187 33.2502 29.3751 32.766 29.3751C32.117 29.3759 31.4948 29.634 31.0359 30.0929C30.577 30.5518 30.3188 31.174 30.3181 31.823V31.823ZM32.766 31.0071C32.9274 31.0071 33.0852 31.0549 33.2194 31.1446C33.3536 31.2342 33.4581 31.3617 33.5199 31.5108C33.5817 31.6599 33.5978 31.824 33.5663 31.9822C33.5349 32.1405 33.4571 32.2859 33.343 32.4C33.2289 32.5141 33.0835 32.5919 32.9252 32.6233C32.7669 32.6548 32.6029 32.6387 32.4538 32.5769C32.3047 32.5151 32.1772 32.4106 32.0876 32.2764C31.9979 32.1422 31.9501 31.9844 31.9501 31.823C31.9503 31.6067 32.0364 31.3993 32.1893 31.2463C32.3423 31.0934 32.5497 31.0073 32.766 31.0071V31.0071Z" fill="#087f5b"/>
<path d="M14.8129 37.5349C15.2971 37.5349 15.7704 37.3913 16.1729 37.1223C16.5755 36.8534 16.8892 36.471 17.0745 36.0237C17.2598 35.5764 17.3083 35.0842 17.2138 34.6094C17.1194 34.1345 16.8862 33.6984 16.5439 33.356C16.2015 33.0137 15.7653 32.7805 15.2905 32.6861C14.8156 32.5916 14.3234 32.6401 13.8761 32.8254C13.4288 33.0107 13.0465 33.3244 12.7775 33.727C12.5086 34.1295 12.365 34.6028 12.365 35.087C12.3657 35.736 12.6239 36.3582 13.0828 36.8171C13.5417 37.276 14.1639 37.5342 14.8129 37.5349V37.5349ZM14.8129 34.271C14.9743 34.271 15.1321 34.3188 15.2662 34.4085C15.4004 34.4982 15.505 34.6256 15.5668 34.7747C15.6285 34.9238 15.6447 35.0879 15.6132 35.2462C15.5817 35.4044 15.504 35.5498 15.3899 35.6639C15.2758 35.7781 15.1304 35.8558 14.9721 35.8873C14.8138 35.9187 14.6498 35.9026 14.5007 35.8408C14.3516 35.7791 14.2241 35.6745 14.1345 35.5403C14.0448 35.4061 13.9969 35.2483 13.9969 35.087C13.9972 34.8706 14.0832 34.6632 14.2362 34.5103C14.3892 34.3573 14.5966 34.2712 14.8129 34.271V34.271Z" fill="#087f5b"/>
<path d="M44.1881 48.9585C44.4045 48.9585 44.612 48.8726 44.765 48.7195C44.9181 48.5665 45.004 48.359 45.004 48.1425V0.815975C45.004 0.599565 44.9181 0.392019 44.765 0.238994C44.612 0.0859685 44.4045 0 44.1881 0H19.7088C19.4924 0 19.2848 0.0859685 19.1318 0.238994C18.9788 0.392019 18.8928 0.599565 18.8928 0.815975V3.2639H18.0768C17.4278 3.26466 16.8056 3.52281 16.3467 3.98172C15.8878 4.44063 15.6297 5.06283 15.6289 5.71183V6.5278H9.91709C9.70068 6.5278 9.49314 6.61377 9.34011 6.7668C9.18709 6.91982 9.10112 7.12737 9.10112 7.34378V11.4237H5.83722C5.62081 11.4237 5.41326 11.5096 5.26023 11.6626C5.10721 11.8157 5.02124 12.0232 5.02124 12.2396V15.5035C5.02124 15.7199 5.10721 15.9275 5.26023 16.0805C5.41326 16.2335 5.62081 16.3195 5.83722 16.3195H6.65319V17.9515H8.28514V16.3195H11.549V17.9515H13.181V16.3195H16.4449V17.9515H18.0768V16.3195H21.3407V17.9515H22.9727V16.3195H26.2366V17.9515H27.8685V16.3195H31.1324V17.9515H32.7644V16.3195H33.5804C33.7968 16.3195 34.0043 16.2335 34.1574 16.0805C34.3104 15.9275 34.3963 15.7199 34.3963 15.5035V12.2396C34.3963 12.0232 34.3104 11.8157 34.1574 11.6626C34.0043 11.5096 33.7968 11.4237 33.5804 11.4237H30.3165V7.34378C30.3165 7.12737 30.2305 6.91982 30.0775 6.7668C29.9245 6.61377 29.7169 6.5278 29.5005 6.5278H23.7887V5.71183C23.7888 5.43382 23.7413 5.15785 23.6483 4.89585H40.1082V48.1425C40.1082 48.359 40.1941 48.5665 40.3472 48.7195C40.5002 48.8726 40.7077 48.9585 40.9242 48.9585H44.1881ZM32.7644 14.6876H6.65319V13.0556H32.7644V14.6876ZM28.6845 11.4237H10.7331V8.15975H28.6845V11.4237ZM22.1567 5.71183V6.5278H17.2609V5.71183C17.2611 5.49549 17.3472 5.28809 17.5001 5.13511C17.6531 4.98214 17.8605 4.89609 18.0768 4.89585H21.3407C21.5571 4.89609 21.7645 4.98214 21.9175 5.13511C22.0704 5.28809 22.1565 5.49549 22.1567 5.71183V5.71183ZM21.3407 3.2639H20.5248V1.63195H43.3721V47.3266H41.7401V4.07988C41.7401 3.86347 41.6542 3.65592 41.5011 3.5029C41.3481 3.34987 41.1406 3.2639 40.9242 3.2639H21.3407Z" fill="#087f5b"/>
<path d="M21.3416 29.3751H22.9735V31.0071H21.3416V29.3751Z" fill="#087f5b"/>
<path d="M21.3416 32.639H22.9735V34.271H21.3416V32.639Z" fill="#087f5b"/>
<path d="M21.3416 35.903H22.9735V37.5349H21.3416V35.903Z" fill="#087f5b"/>
<path d="M21.3416 39.1669H22.9735V40.7988H21.3416V39.1669Z" fill="#087f5b"/>
<path d="M26.24 29.3751H27.8719V31.0071H26.24V29.3751Z" fill="#087f5b"/>
<path d="M26.24 32.639H27.8719V34.271H26.24V32.639Z" fill="#087f5b"/>
<path d="M26.24 35.903H27.8719V37.5349H26.24V35.903Z" fill="#087f5b"/>
<path d="M26.24 39.1669H27.8719V40.7988H26.24V39.1669Z" fill="#087f5b"/>
<path d="M21.3416 42.4307H22.9735V44.0626H21.3416V42.4307Z" fill="#087f5b"/>
<path d="M16.447 29.3751H18.079V31.0071H16.447V29.3751Z" fill="#087f5b"/>
<path d="M11.5525 29.3751H13.1844V31.0071H11.5525V29.3751Z" fill="#087f5b"/>
</svg>
