<svg width="46" height="38" viewBox="0 0 46 38" fill="none" xmlns="http://www.w3.org/2000/svg">
<path d="M42.15 0H3.85085C3.08684 0.000882111 2.35437 0.303546 1.81413 0.841597C1.2739 1.37965 0.970002 2.10915 0.969116 2.87007V31.0152C0.970002 31.7761 1.2739 32.5056 1.81413 33.0437C2.35437 33.5817 3.08684 33.8844 3.85085 33.8853H6.98915V36.6828C6.98925 36.8546 7.05784 37.0194 7.17985 37.1409C7.30186 37.2624 7.46732 37.3308 7.63987 37.3309H10.9864C11.1589 37.3308 11.3244 37.2624 11.4464 37.1409C11.5684 37.0194 11.637 36.8546 11.6371 36.6828V33.8853H34.3638V36.6828C34.3639 36.8546 34.4325 37.0194 34.5545 37.1409C34.6765 37.2624 34.8419 37.3308 35.0145 37.3309H38.361C38.5336 37.3308 38.699 37.2624 38.821 37.1409C38.943 37.0194 39.0116 36.8546 39.0117 36.6828V33.8853H42.15C42.914 33.8844 43.6465 33.5817 44.1867 33.0437C44.727 32.5056 45.0309 31.7761 45.0318 31.0152V2.87007C45.0309 2.10915 44.727 1.37965 44.1867 0.841597C43.6465 0.303546 42.914 0.000882111 42.15 0V0ZM10.3357 36.0332H8.29058V33.8853H10.3357V36.0332ZM37.7103 36.0332H35.6652V33.8853H37.7103V36.0332ZM43.7303 31.0137C43.7298 31.431 43.5632 31.8311 43.2669 32.1261C42.9707 32.4212 42.569 32.5872 42.15 32.5877H3.85085C3.43188 32.5872 3.03021 32.4212 2.73395 32.1261C2.43769 31.8311 2.27104 31.431 2.27054 31.0137V2.86858C2.27143 2.45157 2.43826 2.0519 2.73447 1.75716C3.03069 1.46242 3.43214 1.29665 3.85085 1.29616H42.15C42.569 1.29665 42.9707 1.46263 43.2669 1.75769C43.5632 2.05275 43.7298 2.45279 43.7303 2.87007V31.0137Z" fill="#087f5b"/>
<path d="M13.3335 6.20155C13.3334 6.02969 13.2648 5.86491 13.1428 5.74339C13.0208 5.62188 12.8553 5.55356 12.6828 5.55347H9.52217C9.34959 5.55347 9.18408 5.62175 9.06205 5.74328C8.94002 5.86482 8.87146 6.02966 8.87146 6.20155C8.87146 6.37343 8.94002 6.53827 9.06205 6.65981C9.18408 6.78135 9.34959 6.84963 9.52217 6.84963H12.6828C12.7682 6.84963 12.8529 6.83286 12.9318 6.80029C13.0108 6.76772 13.0825 6.71999 13.1429 6.65981C13.2033 6.59963 13.2513 6.52818 13.284 6.44955C13.3167 6.37093 13.3335 6.28665 13.3335 6.20155Z" fill="#087f5b"/>
<path d="M31.4436 11.525H22.405C22.2324 11.525 22.0669 11.5933 21.9449 11.7148C21.8228 11.8364 21.7543 12.0012 21.7543 12.1731V14.3951C21.7544 14.5669 21.823 14.7317 21.945 14.8532C22.067 14.9748 22.2324 15.0431 22.405 15.0432H31.4436C31.6161 15.0431 31.7816 14.9748 31.9036 14.8532C32.0256 14.7317 32.0942 14.5669 32.0943 14.3951V12.1731C32.0943 12.0012 32.0257 11.8364 31.9037 11.7148C31.7817 11.5933 31.6162 11.525 31.4436 11.525V11.525ZM30.7929 13.747H23.0553V12.8212H30.7929V13.747Z" fill="#087f5b"/>
<path d="M27.4814 17.0808H26.3659C26.1933 17.0808 26.0278 17.1491 25.9058 17.2706C25.7838 17.3922 25.7152 17.557 25.7152 17.7289C25.7152 17.9008 25.7838 18.0656 25.9058 18.1872C26.0278 18.3087 26.1933 18.377 26.3659 18.377H27.4814C27.654 18.377 27.8195 18.3087 27.9416 18.1872C28.0636 18.0656 28.1321 17.9008 28.1321 17.7289C28.1321 17.557 28.0636 17.3922 27.9416 17.2706C27.8195 17.1491 27.654 17.0808 27.4814 17.0808V17.0808Z" fill="#087f5b"/>
<path d="M30.8603 17.0808H29.7448C29.5723 17.0808 29.4067 17.1491 29.2847 17.2706C29.1627 17.3922 29.0941 17.557 29.0941 17.7289C29.0941 17.9008 29.1627 18.0656 29.2847 18.1872C29.4067 18.3087 29.5723 18.377 29.7448 18.377H30.8603C31.0329 18.377 31.1984 18.3087 31.3205 18.1872C31.4425 18.0656 31.5111 17.9008 31.5111 17.7289C31.5111 17.557 31.4425 17.3922 31.3205 17.2706C31.1984 17.1491 31.0329 17.0808 30.8603 17.0808Z" fill="#087f5b"/>
<path d="M24.1064 17.0808H22.9909C22.8183 17.0808 22.6528 17.1491 22.5308 17.2706C22.4088 17.3922 22.3402 17.557 22.3402 17.7289C22.3402 17.9008 22.4088 18.0656 22.5308 18.1872C22.6528 18.3087 22.8183 18.377 22.9909 18.377H24.1064C24.279 18.377 24.4445 18.3087 24.5666 18.1872C24.6886 18.0656 24.7571 17.9008 24.7571 17.7289C24.7571 17.557 24.6886 17.3922 24.5666 17.2706C24.4445 17.1491 24.279 17.0808 24.1064 17.0808Z" fill="#087f5b"/>
<path d="M27.4814 19.072H26.3659C26.1933 19.072 26.0278 19.1403 25.9058 19.2618C25.7838 19.3834 25.7152 19.5482 25.7152 19.7201C25.7152 19.892 25.7838 20.0568 25.9058 20.1784C26.0278 20.2999 26.1933 20.3682 26.3659 20.3682H27.4814C27.654 20.3682 27.8195 20.2999 27.9416 20.1784C28.0636 20.0568 28.1321 19.892 28.1321 19.7201C28.1321 19.5482 28.0636 19.3834 27.9416 19.2618C27.8195 19.1403 27.654 19.072 27.4814 19.072V19.072Z" fill="#087f5b"/>
<path d="M30.8603 19.072H29.7448C29.5723 19.072 29.4067 19.1403 29.2847 19.2618C29.1627 19.3834 29.0941 19.5482 29.0941 19.7201C29.0941 19.892 29.1627 20.0568 29.2847 20.1784C29.4067 20.2999 29.5723 20.3682 29.7448 20.3682H30.8603C31.0329 20.3682 31.1984 20.2999 31.3205 20.1784C31.4425 20.0568 31.5111 19.892 31.5111 19.7201C31.5111 19.5482 31.4425 19.3834 31.3205 19.2618C31.1984 19.1403 31.0329 19.072 30.8603 19.072Z" fill="#087f5b"/>
<path d="M24.1064 19.072H22.9909C22.8183 19.072 22.6528 19.1403 22.5308 19.2618C22.4088 19.3834 22.3402 19.5482 22.3402 19.7201C22.3402 19.892 22.4088 20.0568 22.5308 20.1784C22.6528 20.2999 22.8183 20.3682 22.9909 20.3682H24.1064C24.279 20.3682 24.4445 20.2999 24.5666 20.1784C24.6886 20.0568 24.7571 19.892 24.7571 19.7201C24.7571 19.5482 24.6886 19.3834 24.5666 19.2618C24.4445 19.1403 24.279 19.072 24.1064 19.072Z" fill="#087f5b"/>
<path d="M27.4814 21.0615H26.3659C26.1933 21.0615 26.0278 21.1298 25.9058 21.2513C25.7838 21.3729 25.7152 21.5377 25.7152 21.7096C25.7152 21.8815 25.7838 22.0463 25.9058 22.1679C26.0278 22.2894 26.1933 22.3577 26.3659 22.3577H27.4814C27.654 22.3577 27.8195 22.2894 27.9416 22.1679C28.0636 22.0463 28.1321 21.8815 28.1321 21.7096C28.1321 21.5377 28.0636 21.3729 27.9416 21.2513C27.8195 21.1298 27.654 21.0615 27.4814 21.0615V21.0615Z" fill="#087f5b"/>
<path d="M30.8603 21.0615H29.7448C29.5723 21.0615 29.4067 21.1298 29.2847 21.2513C29.1627 21.3729 29.0941 21.5377 29.0941 21.7096C29.0941 21.8815 29.1627 22.0463 29.2847 22.1679C29.4067 22.2894 29.5723 22.3577 29.7448 22.3577H30.8603C31.0329 22.3577 31.1984 22.2894 31.3205 22.1679C31.4425 22.0463 31.5111 21.8815 31.5111 21.7096C31.5111 21.5377 31.4425 21.3729 31.3205 21.2513C31.1984 21.1298 31.0329 21.0615 30.8603 21.0615Z" fill="#087f5b"/>
<path d="M24.1064 21.0615H22.9909C22.8183 21.0615 22.6528 21.1298 22.5308 21.2513C22.4088 21.3729 22.3402 21.5377 22.3402 21.7096C22.3402 21.8815 22.4088 22.0463 22.5308 22.1679C22.6528 22.2894 22.8183 22.3577 22.9909 22.3577H24.1064C24.279 22.3577 24.4445 22.2894 24.5666 22.1679C24.6886 22.0463 24.7571 21.8815 24.7571 21.7096C24.7571 21.5377 24.6886 21.3729 24.5666 21.2513C24.4445 21.1298 24.279 21.0615 24.1064 21.0615Z" fill="#087f5b"/>
<path d="M15.3011 11.525C14.4988 11.5247 13.719 11.7896 13.0841 12.2782C12.4493 12.7668 11.9951 13.4514 11.793 14.2248C11.5909 14.9981 11.6522 15.8163 11.9673 16.5512C12.2824 17.2861 12.8335 17.8961 13.5342 18.2854V21.7088C13.5342 21.8806 13.6027 22.0455 13.7248 22.167C13.8468 22.2886 14.0123 22.3568 14.1849 22.3568H16.4159C16.5885 22.3568 16.754 22.2886 16.876 22.167C16.9981 22.0455 17.0666 21.8806 17.0666 21.7088V18.2865C17.7677 17.8975 18.3193 17.2877 18.6348 16.5527C18.9504 15.8177 19.012 14.9992 18.81 14.2256C18.608 13.452 18.1538 12.7671 17.5188 12.2783C16.8837 11.7896 16.1037 11.5246 15.3011 11.525V11.525ZM15.7652 21.0607H14.8356V18.7131C14.9899 18.7342 15.1454 18.7453 15.3011 18.7465C15.4564 18.7453 15.6114 18.7343 15.7652 18.7135V21.0607ZM15.3011 17.4503C14.8415 17.4503 14.3922 17.3146 14.01 17.0602C13.6278 16.8059 13.3299 16.4444 13.1541 16.0215C12.9782 15.5986 12.9321 15.1332 13.0218 14.6842C13.1115 14.2352 13.3328 13.8228 13.6578 13.4991C13.9828 13.1754 14.3969 12.955 14.8477 12.8657C15.2986 12.7763 15.7658 12.8222 16.1905 12.9974C16.6151 13.1726 16.9781 13.4692 17.2334 13.8498C17.4888 14.2305 17.6251 14.678 17.6251 15.1358C17.6244 15.7494 17.3794 16.3377 16.9437 16.7716C16.508 17.2056 15.9173 17.4496 15.3011 17.4503V17.4503Z" fill="#087f5b"/>
<path d="M40.4779 7.43628H39.4553V3.98109C39.4552 3.80924 39.3866 3.64445 39.2646 3.52293C39.1426 3.40142 38.9772 3.33311 38.8046 3.33301H4.96749C4.79494 3.33311 4.62948 3.40142 4.50747 3.52293C4.38546 3.64445 4.31687 3.80924 4.31677 3.98109V29.9043C4.31687 30.0761 4.38546 30.2409 4.50747 30.3624C4.62948 30.4839 4.79494 30.5522 4.96749 30.5523H38.8046C38.9772 30.5522 39.1426 30.4839 39.2646 30.3624C39.3866 30.2409 39.4552 30.0761 39.4553 29.9043V26.4465H40.4779C40.6504 26.4464 40.8159 26.3781 40.9379 26.2566C41.0599 26.135 41.1285 25.9703 41.1286 25.7984V23.5764C41.1285 23.4046 41.0599 23.2398 40.9379 23.1183C40.8159 22.9967 40.6504 22.9284 40.4779 22.9283H39.4553V10.9544H40.4779C40.6504 10.9543 40.8159 10.886 40.9379 10.7645C41.0599 10.643 41.1285 10.4782 41.1286 10.3063V8.08436C41.1286 7.99925 41.1118 7.91497 41.0791 7.83635C41.0464 7.75772 40.9984 7.68627 40.938 7.62609C40.8776 7.56591 40.8059 7.51818 40.7269 7.48561C40.648 7.45304 40.5633 7.43628 40.4779 7.43628V7.43628ZM39.8272 25.1503H37.7821V24.2245H39.8272V25.1503ZM38.1539 22.9283H37.1314C36.9588 22.9284 36.7934 22.9967 36.6713 23.1183C36.5493 23.2398 36.4807 23.4046 36.4806 23.5764V25.7984C36.4807 25.9703 36.5493 26.135 36.6713 26.2566C36.7934 26.3781 36.9588 26.4464 37.1314 26.4465H38.1539V29.2562H5.6182V4.62917H38.1539V7.43628H37.1314C36.9588 7.43628 36.7933 7.50456 36.6712 7.62609C36.5492 7.74763 36.4806 7.91247 36.4806 8.08436V10.3063C36.4807 10.4782 36.5493 10.643 36.6713 10.7645C36.7934 10.886 36.9588 10.9543 37.1314 10.9544H38.1539V22.9283ZM39.8272 9.65826H37.7821V8.73243H39.8272V9.65826Z" fill="#087f5b"/>
</svg>
