<svg width="44" height="31" viewBox="0 0 44 31" fill="none" xmlns="http://www.w3.org/2000/svg">
<path d="M3.66667 1.47619H0.733333C0.538841 1.47619 0.352315 1.55395 0.214788 1.69237C0.0772617 1.83079 0 2.01853 0 2.21429V8.11905C0 8.3148 0.0772617 8.50254 0.214788 8.64096C0.352315 8.77938 0.538841 8.85714 0.733333 8.85714H3.66667C3.86116 8.85714 4.04768 8.77938 4.18521 8.64096C4.32274 8.50254 4.4 8.3148 4.4 8.11905V5.90476H6.6V30.2619C6.6 30.4577 6.67726 30.6454 6.81479 30.7838C6.95232 30.9222 7.13884 31 7.33333 31H30.8C30.9945 31 31.181 30.9222 31.3185 30.7838C31.4561 30.6454 31.5333 30.4577 31.5333 30.2619V22.1429H36.6667C36.8612 22.1429 37.0477 22.0651 37.1852 21.9267C37.3227 21.7883 37.4 21.6005 37.4 21.4048V5.90476H39.6V8.11905C39.6 8.3148 39.6773 8.50254 39.8148 8.64096C39.9523 8.77938 40.1388 8.85714 40.3333 8.85714H43.2667C43.4612 8.85714 43.6477 8.77938 43.7852 8.64096C43.9227 8.50254 44 8.3148 44 8.11905V2.21429C44 2.01853 43.9227 1.83079 43.7852 1.69237C43.6477 1.55395 43.4612 1.47619 43.2667 1.47619H40.3333C40.1388 1.47619 39.9523 1.55395 39.8148 1.69237C39.6773 1.83079 39.6 2.01853 39.6 2.21429V4.42857H37.4V3.69048C37.3989 2.71204 37.0123 1.77399 36.3249 1.08213C35.6375 0.390269 34.7055 0.00109889 33.7333 0H10.2667C9.29454 0.00109889 8.36254 0.390269 7.67515 1.08213C6.98775 1.77399 6.60109 2.71204 6.6 3.69048V4.42857H4.4V2.21429C4.4 2.01853 4.32274 1.83079 4.18521 1.69237C4.04768 1.55395 3.86116 1.47619 3.66667 1.47619ZM2.93333 7.38095H1.46667V2.95238H2.93333V7.38095ZM41.0667 2.95238H42.5333V7.38095H41.0667V2.95238ZM31.5333 3.69048C31.5333 3.10321 31.7651 2.54 32.1777 2.12474C32.5903 1.70948 33.1499 1.47619 33.7333 1.47619C34.3168 1.47619 34.8764 1.70948 35.289 2.12474C35.7015 2.54 35.9333 3.10321 35.9333 3.69048V4.42857H31.5333V3.69048ZM31.5333 5.90476H35.9333V20.6667H31.5333V5.90476ZM8.06667 3.69048C8.06732 3.10341 8.29932 2.54058 8.71176 2.12547C9.12419 1.71035 9.68339 1.47685 10.2667 1.47619H30.8017C30.3239 2.11412 30.0658 2.89154 30.0667 3.69048V25.0952H8.06667V3.69048ZM8.06667 26.5714H30.0667V29.5238H8.06667V26.5714Z" fill="#013F6B"/>
</svg>
