<svg width="46" height="47" viewBox="0 0 46 47" fill="none" xmlns="http://www.w3.org/2000/svg">
<path d="M0.969116 22.9599C0.969098 22.9941 0.971398 23.0284 0.976001 23.0623L3.94131 44.9541C4.01838 45.5116 4.29771 46.0228 4.72775 46.3934C5.15779 46.7641 5.70951 46.9691 6.28109 46.9706H39.5244C40.1502 46.9699 40.7502 46.7249 41.1927 46.2892C41.6353 45.8536 41.8842 45.263 41.8849 44.647V41.6001L45.0254 18.4151C45.0254 18.4117 45.0254 18.4084 45.0262 18.4054C45.028 18.3897 45.029 18.3738 45.03 18.3579C45.0307 18.3462 45.0316 18.3347 45.0318 18.3231C45.0318 18.3197 45.0318 18.3164 45.0318 18.3134V15.2145C45.0318 15.0091 44.9489 14.8121 44.8013 14.6668C44.6537 14.5216 44.4536 14.44 44.2449 14.44H28.5086C28.2999 14.44 28.0998 14.5216 27.9522 14.6668C27.8046 14.8121 27.7217 15.0091 27.7217 15.2145V18.3126C27.7217 18.3161 27.7217 18.3194 27.7217 18.3223C27.7217 18.3339 27.7228 18.3455 27.7235 18.3571C27.7245 18.3731 27.7255 18.3889 27.7273 18.4046C27.7273 18.4079 27.7273 18.4112 27.7281 18.4143L29.1788 29.1238C27.5968 29.0054 27.1078 28.584 26.9646 28.3864C26.9136 28.3154 26.8795 28.2339 26.8648 28.1481C26.8502 28.0624 26.8553 27.9744 26.8799 27.8909C26.9331 27.7762 26.9555 27.65 26.9452 27.5243C26.9349 27.3986 26.8921 27.2776 26.8209 27.1728C26.747 27.0648 26.6466 26.977 26.5289 26.9175C26.4113 26.858 26.2803 26.8288 26.1481 26.8326C24.5825 26.8326 23.3759 27.1327 22.382 27.5786L22.9938 23.0623C22.9984 23.0284 23.0007 22.9941 23.0007 22.9599C22.9992 21.104 22.4772 19.2845 21.4922 17.702C20.5073 16.1195 19.0976 14.8354 17.4185 13.9912C17.4857 13.8499 17.5078 13.692 17.4821 13.5381L16.6952 8.89087C16.6646 8.71002 16.5698 8.54572 16.4277 8.42721C16.2856 8.30869 16.1054 8.24365 15.9191 8.24364H15.1323V5.14549H20.6402C20.8488 5.14549 21.049 5.06389 21.1965 4.91863C21.3441 4.77338 21.427 4.57637 21.427 4.37095V1.2728C21.427 1.16675 21.4049 1.06183 21.362 0.964538C21.3191 0.86725 21.2564 0.779667 21.1777 0.707216C21.099 0.634764 21.0061 0.578989 20.9046 0.543345C20.8032 0.507701 20.6953 0.492948 20.5878 0.5L8.78521 1.27454C8.62936 1.28477 8.48012 1.34043 8.35652 1.43443C8.23291 1.52843 8.14052 1.65652 8.09112 1.80239L7.30427 4.126C7.26485 4.24243 7.25409 4.36641 7.27289 4.48774C7.29168 4.60906 7.3395 4.72425 7.4124 4.82381C7.48529 4.92337 7.58118 5.00446 7.69215 5.06039C7.80313 5.11631 7.92602 5.14548 8.05069 5.14549H8.83753V8.24364H8.05069C7.86443 8.24365 7.68422 8.30869 7.5421 8.42721C7.39999 8.54572 7.30519 8.71002 7.27457 8.89087L6.48773 13.5381C6.462 13.692 6.48415 13.8499 6.55127 13.9912C4.87221 14.8354 3.46252 16.1195 2.47756 17.702C1.4926 19.2845 0.970608 21.104 0.969116 22.9599ZM33.2296 45.4215H14.2438C14.0621 45.4213 13.888 45.3502 13.7595 45.2237C13.631 45.0973 13.5588 44.9258 13.5586 44.747V36.8016C13.5588 36.6227 13.631 36.4513 13.7595 36.3248C13.888 36.1983 14.0621 36.1272 14.2438 36.127H33.3312C33.5129 36.1272 33.6871 36.1983 33.8156 36.3248C33.944 36.4513 34.0163 36.6227 34.0165 36.8016V44.747C34.0163 44.9258 33.944 45.0973 33.8156 45.2237C33.6871 45.3502 33.5129 45.4213 33.3312 45.4215H33.2296ZM15.9191 33.0289H31.6559V34.578H15.9191V33.0289ZM40.3112 44.647C40.311 44.8523 40.228 45.0492 40.0805 45.1944C39.933 45.3396 39.733 45.4213 39.5244 45.4215H35.4836C35.5543 45.2034 35.5902 44.9759 35.5902 44.747V42.3233H40.3112V44.647ZM40.4096 40.7743H35.5902V36.8016C35.5895 36.212 35.3513 35.6468 34.9278 35.23C34.5043 34.8131 33.9301 34.5786 33.3312 34.578H33.2296V32.2543C33.2296 32.2327 33.2282 32.2114 33.2264 32.1901C33.2264 32.1871 33.2256 32.1815 33.2251 32.1767V32.1741C33.1659 31.6664 33.01 31.1743 32.7655 30.7236C32.5683 30.3448 32.2878 30.014 31.9445 29.7554C31.6011 29.4967 31.2035 29.3166 30.7806 29.2282L29.4072 19.0872H43.3467L40.4096 40.7743ZM29.2954 15.989H43.4586V17.5381H29.2954V15.989ZM25.6482 29.2359C26.3136 30.2109 27.8053 30.7053 30.0823 30.7053C30.6724 30.7053 31.0789 30.9346 31.3628 31.4272C31.3727 31.4448 31.3825 31.4623 31.3916 31.4798H19.5603C19.8961 31.2265 20.2159 30.9606 20.5329 30.6966C21.814 29.6293 23.0317 28.615 25.3135 28.4166C25.3641 28.7101 25.4783 28.9895 25.6482 29.2359ZM9.41694 2.78557L19.8533 2.10068V3.59641H9.14244L9.41694 2.78557ZM10.4112 5.14549H13.5586V8.24364H10.4112V5.14549ZM8.19272 12.8909L8.71725 9.79272H15.2526L15.7771 12.8909H8.19272ZM11.1981 14.44H12.7717C15.0576 14.4425 17.2499 15.334 18.8711 16.9204C20.4922 18.5067 21.4109 20.6594 21.427 22.9095L20.6555 28.6043C20.2506 28.9026 19.8775 29.2129 19.5163 29.5138C18.2501 30.5688 17.1563 31.4798 15.1323 31.4798C14.9236 31.4798 14.7234 31.5614 14.5759 31.7067C14.4283 31.8519 14.3454 32.0489 14.3454 32.2543V34.578H14.2438C13.6449 34.5786 13.0708 34.8131 12.6473 35.23C12.2238 35.6468 11.9856 36.212 11.9849 36.8016V44.747C11.9848 44.9759 12.0208 45.2034 12.0914 45.4215H6.28109C6.09056 45.421 5.90665 45.3526 5.7633 45.2291C5.61996 45.1055 5.52684 44.9351 5.50113 44.7493L2.5428 22.9095C2.55889 20.6594 3.47756 18.5067 5.09872 16.9204C6.71987 15.334 8.91216 14.4425 11.1981 14.44Z" fill="#087f5b"/>
<path d="M23.7884 37.1779C23.1659 37.1779 22.5574 37.3596 22.0398 37.7C21.5222 38.0404 21.1188 38.5243 20.8806 39.0904C20.6424 39.6565 20.58 40.2794 20.7015 40.8804C20.8229 41.4814 21.1227 42.0335 21.5628 42.4667C22.003 42.9 22.5638 43.1951 23.1743 43.3146C23.7849 43.4342 24.4177 43.3728 24.9928 43.1383C25.5679 42.9038 26.0595 42.5067 26.4053 41.9973C26.7511 41.4878 26.9357 40.8888 26.9357 40.276C26.9348 39.4546 26.6029 38.6671 26.0129 38.0863C25.4228 37.5055 24.6228 37.1788 23.7884 37.1779V37.1779ZM23.7884 41.8251C23.4771 41.8251 23.1729 41.7342 22.9141 41.564C22.6553 41.3938 22.4536 41.1519 22.3345 40.8688C22.2154 40.5858 22.1842 40.2743 22.2449 39.9738C22.3056 39.6733 22.4555 39.3973 22.6756 39.1806C22.8957 38.964 23.1761 38.8165 23.4814 38.7567C23.7866 38.6969 24.103 38.7276 24.3906 38.8449C24.6781 38.9621 24.9239 39.1606 25.0968 39.4154C25.2698 39.6701 25.362 39.9696 25.362 40.276C25.3616 40.6867 25.1956 41.0804 24.9006 41.3708C24.6056 41.6612 24.2056 41.8246 23.7884 41.8251V41.8251Z" fill="#087f5b"/>
<path d="M36.376 26.3342C38.6185 26.3342 40.3102 25.3354 40.3102 24.0106C40.3102 22.6859 38.6185 21.687 36.376 21.687C34.1335 21.687 32.4418 22.6859 32.4418 24.0106C32.4418 25.3354 34.1335 26.3342 36.376 26.3342ZM36.376 23.2361C37.8993 23.2361 38.7365 23.8179 38.7365 24.0106C38.7365 24.2034 37.8993 24.7852 36.376 24.7852C34.8527 24.7852 34.0155 24.2034 34.0155 24.0106C34.0155 23.8179 34.8527 23.2361 36.376 23.2361Z" fill="#087f5b"/>
<path d="M7.26383 25.5598H16.7059C16.9146 25.5598 17.1148 25.4782 17.2623 25.3329C17.4099 25.1877 17.4928 24.9907 17.4928 24.7852V20.138C17.4928 19.9326 17.4099 19.7356 17.2623 19.5903C17.1148 19.4451 16.9146 19.3635 16.7059 19.3635H7.26383C7.05515 19.3635 6.85501 19.4451 6.70745 19.5903C6.55989 19.7356 6.47699 19.9326 6.47699 20.138V24.7852C6.47699 24.9907 6.55989 25.1877 6.70745 25.3329C6.85501 25.4782 7.05515 25.5598 7.26383 25.5598ZM8.05067 20.9125H15.9191V24.0107H8.05067V20.9125Z" fill="#087f5b"/>
</svg>
