<svg width="46" height="37" viewBox="0 0 46 37" fill="none" xmlns="http://www.w3.org/2000/svg">
<path fill-rule="evenodd" clip-rule="evenodd" d="M11.9848 16.642V16.5111V15.8881H9.98478H9.8539H7.8539V16.5111V16.642V17.8881V18.642H7.85195V19.265V23.9399V25.9399H9.85195H9.98282H11.9828V23.9399V19.265V17.265H11.9848V16.642ZM42.2759 18.642H43.0318H45.0318V16.642V16.5111V14.5111H43.0318H13.9848H11.9848H7.8539H5.8539H2.96912H0.969116V16.5111V16.642V18.642H2.34412V19.265V34.5424V36.5424H4.34412H40.2759H42.2759V34.5424V19.265V18.642ZM2.96912 16.5111H5.8539V16.642H2.96912V16.5111ZM13.9848 16.642V16.5111H43.0318V16.642H13.9848ZM14.3636 34.5424L14.3636 19.265H18.2308V34.5424H14.3636ZM20.2308 34.5424H23.8832V19.265H20.2308V34.5424ZM29.5394 34.5424H25.8832V19.265H29.5394V34.5424ZM31.5394 34.5424H35.1918V19.265H31.5394V34.5424ZM40.2759 34.5424H37.1918V19.265H40.2759V34.5424ZM12.3636 27.9399V34.5424H8.85193L8.85193 27.9399H11.9828H12.3636ZM6.85193 27.9399H5.85195V25.9399V19.265H4.34412V34.5424H6.85193L6.85193 27.9399Z" fill="#013F6B"/>
<path d="M9.5082 8.67644C9.12175 9.06154 8.88316 9.70295 8.86755 10.3984C8.86755 10.7886 9.07847 11.105 9.33862 11.105C9.59876 11.105 9.80968 10.7886 9.80968 10.3984C9.80968 10.1596 9.88317 10.0451 10.1116 9.76248C10.4977 9.37765 10.7361 8.73686 10.7518 8.04192C10.7364 7.34654 10.4977 6.7053 10.1112 6.32065C9.88317 6.03801 9.80968 5.92354 9.80968 5.68471C9.80968 5.45789 9.86998 5.3519 10.1112 5.04877C10.4968 4.66527 10.7354 4.02606 10.7518 3.33245C10.7518 2.94223 10.5409 2.62585 10.2807 2.62585C10.0206 2.62585 9.80968 2.94223 9.80968 3.33245C9.80968 3.55927 9.74939 3.66526 9.5082 3.96839C9.1224 4.35207 8.88381 4.99154 8.86755 5.68542C8.88322 6.38036 9.12163 7.02115 9.50773 7.40598C9.7362 7.68862 9.80968 7.80309 9.80968 8.04192C9.80968 8.28075 9.7362 8.39168 9.5082 8.67644Z" fill="#013F6B"/>
<path d="M13.2778 6.79216C12.8913 7.17726 12.6528 7.81867 12.6371 8.51414C12.6371 8.90436 12.8481 9.22074 13.1082 9.22074C13.3684 9.22074 13.5793 8.90436 13.5793 8.51414C13.5793 8.27531 13.6528 8.16084 13.8812 7.8782C14.2673 7.49337 14.5057 6.85258 14.5214 6.15764C14.506 5.46226 14.2673 4.82102 13.8808 4.43637C13.6528 4.15373 13.5793 4.03926 13.5793 3.80043C13.5793 3.57362 13.6396 3.46763 13.8808 3.1645C14.2664 2.78099 14.505 2.14179 14.5214 1.44817C14.5214 1.05796 14.3105 0.741577 14.0503 0.741577C13.7902 0.741577 13.5793 1.05796 13.5793 1.44817C13.5793 1.67499 13.519 1.78098 13.2778 2.08411C12.892 2.46779 12.6534 3.10726 12.6371 3.80114C12.6528 4.49608 12.8912 5.13687 13.2773 5.5217C13.5058 5.80434 13.5793 5.91881 13.5793 6.15764C13.5793 6.39647 13.5058 6.50741 13.2778 6.79216Z" fill="#013F6B"/>
<path d="M18.9301 11.5031C18.5436 11.8882 18.305 12.5296 18.2894 13.2251C18.2894 13.6153 18.5003 13.9317 18.7605 13.9317C19.0206 13.9317 19.2316 13.6153 19.2316 13.2251C19.2316 12.9862 19.305 12.8718 19.5335 12.5891C19.9196 12.2043 20.158 11.5635 20.1737 10.8686C20.1583 10.1732 19.9195 9.53196 19.533 9.14731C19.305 8.86467 19.2316 8.7502 19.2316 8.51137C19.2316 8.28455 19.2919 8.17856 19.533 7.87543C19.9187 7.49193 20.1573 6.85272 20.1737 6.15911C20.1737 5.76889 19.9628 5.45251 19.7026 5.45251C19.4425 5.45251 19.2316 5.76889 19.2316 6.15911C19.2316 6.38593 19.1713 6.49192 18.9301 6.79505C18.5443 7.17873 18.3057 7.8182 18.2894 8.51208C18.3051 9.20702 18.5435 9.84781 18.9296 10.2326C19.1581 10.5153 19.2316 10.6297 19.2316 10.8686C19.2316 11.1074 19.1581 11.2183 18.9301 11.5031Z" fill="#013F6B"/>
<path d="M24.5824 7.73406C24.196 8.11915 23.9574 8.76057 23.9418 9.45603C23.9418 9.84625 24.1527 10.1626 24.4128 10.1626C24.673 10.1626 24.8839 9.84625 24.8839 9.45603C24.8839 9.21721 24.9574 9.10274 25.1859 8.8201C25.572 8.43527 25.8104 7.79447 25.826 7.09953C25.8106 6.40416 25.5719 5.76292 25.1854 5.37827C24.9574 5.09563 24.8839 4.98116 24.8839 4.74233C24.8839 4.51551 24.9442 4.40952 25.1854 4.10639C25.5711 3.72289 25.8096 3.08368 25.826 2.39007C25.826 1.99985 25.6151 1.68347 25.355 1.68347C25.0948 1.68347 24.8839 1.99985 24.8839 2.39007C24.8839 2.61689 24.8236 2.72288 24.5824 3.02601C24.1966 3.40969 23.958 4.04916 23.9418 4.74303C23.9574 5.43797 24.1959 6.07877 24.5819 6.4636C24.8104 6.74624 24.8839 6.86071 24.8839 7.09953C24.8839 7.33836 24.8104 7.4493 24.5824 7.73406Z" fill="#013F6B"/>
<path d="M33.063 10.5606C32.6765 10.9457 32.4379 11.5871 32.4223 12.2826C32.4223 12.6728 32.6332 12.9892 32.8934 12.9892C33.1535 12.9892 33.3644 12.6728 33.3644 12.2826C33.3644 12.0438 33.4379 11.9293 33.6664 11.6467C34.0525 11.2618 34.2909 10.621 34.3066 9.9261C34.2911 9.23072 34.0524 8.58949 33.6659 8.20483C33.4379 7.9222 33.3644 7.80773 33.3644 7.5689C33.3644 7.34208 33.4247 7.23609 33.6659 6.93296C34.0516 6.54945 34.2901 5.91025 34.3066 5.21664C34.3066 4.82642 34.0956 4.51004 33.8355 4.51004C33.5754 4.51004 33.3644 4.82642 33.3644 5.21664C33.3644 5.44345 33.3041 5.54944 33.063 5.85257C32.6771 6.23626 32.4386 6.87573 32.4223 7.5696C32.438 8.26454 32.6764 8.90534 33.0625 9.29017C33.2909 9.57281 33.3644 9.68727 33.3644 9.9261C33.3644 10.1649 33.2909 10.2759 33.063 10.5606Z" fill="#013F6B"/>
<path d="M38.7152 7.73406C38.3288 8.11915 38.0902 8.76057 38.0746 9.45603C38.0746 9.84625 38.2855 10.1626 38.5456 10.1626C38.8058 10.1626 39.0167 9.84625 39.0167 9.45603C39.0167 9.21721 39.0902 9.10274 39.3187 8.8201C39.7048 8.43527 39.9432 7.79447 39.9588 7.09953C39.9434 6.40416 39.7047 5.76292 39.3182 5.37827C39.0902 5.09563 39.0167 4.98116 39.0167 4.74233C39.0167 4.51551 39.077 4.40952 39.3182 4.10639C39.7039 3.72289 39.9424 3.08368 39.9588 2.39007C39.9588 1.99985 39.7479 1.68347 39.4878 1.68347C39.2276 1.68347 39.0167 1.99985 39.0167 2.39007C39.0167 2.61689 38.9564 2.72288 38.7152 3.02601C38.3294 3.40969 38.0908 4.04916 38.0746 4.74303C38.0902 5.43797 38.3287 6.07877 38.7148 6.4636C38.9432 6.74624 39.0167 6.86071 39.0167 7.09953C39.0167 7.33836 38.9432 7.4493 38.7152 7.73406Z" fill="#013F6B"/>
</svg>
