<svg width="45" height="42" viewBox="0 0 45 42" fill="none" xmlns="http://www.w3.org/2000/svg">
<path d="M34.81 0.866922C34.7795 0.866922 34.749 0.868715 34.7189 0.87266L11.3789 3.7903L2.72315 0.904939C2.52876 0.83823 2.31536 0.857238 2.13567 0.957302C1.95599 1.05557 1.8258 1.22486 1.7763 1.42355C1.71748 1.66672 0.287537 7.42166 0.287537 10.4157C0.287537 13.4094 1.71748 19.1643 1.77846 19.4075C1.86023 19.7346 2.15396 19.9641 2.4911 19.9645C2.57 19.9645 2.64855 19.9515 2.72315 19.9261L11.3789 17.0411L25.2612 18.7766V36.8584C25.2612 39.6979 27.5631 42.0001 30.4029 42.0001C33.2427 42.0001 35.5445 39.6979 35.5445 36.8584V19.9268C40.6557 19.5301 44.5402 15.1664 44.343 10.0438C44.1454 4.92077 39.9366 0.869074 34.81 0.866922ZM1.75658 10.4157C1.75658 8.22002 2.62918 4.22642 3.01939 2.55187L10.5708 5.0689V15.7621L3.01939 18.2795C2.62918 16.6046 1.75658 12.611 1.75658 10.4157ZM12.0399 5.18797L31.1374 2.80078V18.0302L27.2496 17.545L12.0399 15.6431V5.18797ZM26.7303 28.0442H28.1993V29.5132H26.7303V28.0442ZM28.1993 26.5751H26.7303V25.1061H28.1993V26.5751ZM34.0755 36.8584C34.0755 38.8866 32.4311 40.531 30.4029 40.531C28.3747 40.531 26.7303 38.8866 26.7303 36.8584V30.9823H28.9338C29.3395 30.9823 29.6684 30.6534 29.6684 30.2477V24.3716C29.6684 23.9659 29.3395 23.6371 28.9338 23.6371H26.7303V18.9602L34.0755 19.8784V36.8584ZM34.8548 18.4954L32.6064 18.2139V2.61715L34.8548 2.33596C39.3172 2.33596 42.9346 5.95333 42.9346 10.4157C42.9346 14.878 39.3172 18.4954 34.8548 18.4954Z" fill="#013F6B"/>
<path d="M41.2878 10.5501C41.2878 10.9557 40.9589 11.2846 40.5533 11.2846C40.1477 11.2846 39.8188 10.9557 39.8188 10.5501C39.8188 10.1444 40.1477 9.81555 40.5533 9.81555C40.9589 9.81555 41.2878 10.1444 41.2878 10.5501Z" fill="#013F6B"/>
<path d="M40.5535 7.61196C40.5535 8.0176 40.2246 8.34648 39.8189 8.34648C39.4133 8.34648 39.0844 8.0176 39.0844 7.61196C39.0844 7.20633 39.4133 6.87744 39.8189 6.87744C40.2246 6.87744 40.5535 7.20633 40.5535 7.61196Z" fill="#013F6B"/>
<path d="M40.5535 13.4881C40.5535 13.8937 40.2246 14.2226 39.8189 14.2226C39.4133 14.2226 39.0844 13.8937 39.0844 13.4881C39.0844 13.0824 39.4133 12.7535 39.8189 12.7535C40.2246 12.7535 40.5535 13.0824 40.5535 13.4881Z" fill="#013F6B"/>
</svg>
