<svg width="24" height="24" viewBox="0 0 24 24" fill="none" xmlns="http://www.w3.org/2000/svg">
<path d="M22.7599 11.977H3.19988V3.194C3.19888 1.87 4.26988 0.798 5.59388 0.798H6.39188V2.435C5.46188 2.625 4.79488 3.443 4.79488 4.391C4.79488 4.611 4.97488 4.791 5.19488 4.791H8.38788C8.60788 4.791 8.78788 4.611 8.78788 4.391C8.78788 3.443 8.11988 2.625 7.19088 2.435V0.4C7.18988 0.18 7.01188 0 6.78988 0H5.59488C3.82988 0 2.39988 1.43 2.39988 3.194V11.977H1.20188C0.540883 11.977 0.00488281 12.513 0.00488281 13.174C0.00488281 13.836 0.540883 14.372 1.20188 14.372C1.30988 17.278 2.55588 20.36 4.41988 21.274C3.81688 21.918 3.84988 22.929 4.49388 23.532C5.13788 24.134 6.14888 24.102 6.75088 23.457C7.23488 22.941 7.32088 22.168 6.96288 21.557H16.9959C16.8519 21.8 16.7749 22.075 16.7719 22.357C16.7669 23.238 17.4769 23.957 18.3589 23.963C19.2409 23.968 19.9599 23.257 19.9659 22.375C19.9679 21.967 19.8139 21.573 19.5349 21.275C21.3989 20.36 22.6449 17.278 22.7599 14.372C23.4219 14.372 23.9579 13.836 23.9579 13.174C23.9579 12.513 23.4219 11.977 22.7599 11.977V11.977ZM7.18988 3.26C7.53188 3.38 7.80188 3.65 7.92188 3.992H5.66188C5.88188 3.368 6.56588 3.04 7.18988 3.26V3.26ZM13.1799 12.775H18.7699V17.167H13.1799V12.775V12.775ZM0.803883 13.175C0.803883 12.954 0.982883 12.775 1.20388 12.775H12.3799V13.574H1.20188C0.981883 13.574 0.802883 13.394 0.802883 13.174L0.803883 13.175ZM5.59388 23.155C5.15388 23.155 4.79588 22.797 4.79588 22.356C4.79588 21.916 5.15388 21.558 5.59488 21.558C6.03488 21.558 6.39288 21.915 6.39288 22.356C6.39288 22.797 6.03588 23.155 5.59488 23.155H5.59388ZM18.3699 23.155C17.9289 23.155 17.5709 22.797 17.5709 22.356C17.5709 21.916 17.9289 21.558 18.3699 21.558C18.8099 21.558 19.1679 21.915 19.1679 22.356C19.1679 22.797 18.8109 23.155 18.3699 23.155V23.155ZM18.3699 20.759H5.59388C3.81688 20.759 2.14088 17.709 2.00088 14.372H12.3809V18.364C12.3809 18.584 12.5589 18.764 12.7799 18.764C12.9999 18.764 13.1789 18.584 13.1789 18.364V17.964H13.9769V18.364C13.9769 18.584 14.1569 18.764 14.3769 18.764C14.5969 18.764 14.7759 18.584 14.7759 18.364V17.964H15.5739V18.364C15.5739 18.584 15.7539 18.764 15.9739 18.764C16.1939 18.764 16.3729 18.584 16.3729 18.364V17.964H17.1709V18.364C17.1709 18.584 17.3499 18.764 17.5709 18.764C17.7909 18.764 17.9699 18.584 17.9699 18.364V17.964H18.7679V18.364C18.7679 18.584 18.9469 18.764 19.1679 18.764C19.3879 18.764 19.5669 18.584 19.5669 18.364V14.372H21.9619C21.8219 17.709 20.1449 20.759 18.3689 20.759H18.3699ZM22.7609 13.573H19.5679V12.775H22.7609C22.9809 12.775 23.1609 12.954 23.1609 13.175C23.1609 13.395 22.9809 13.573 22.7609 13.573Z" fill="#1A1A1A"/>
</svg>
