<svg width="36" height="28" viewBox="0 0 36 28" fill="none" xmlns="http://www.w3.org/2000/svg">
<path d="M32.0871 27.7028H3.81881C2.02613 27.7028 0.554688 26.2314 0.554688 24.4387V3.49654C0.554688 1.70387 2.02613 0.232422 3.81881 0.232422H32.0871C33.8798 0.232422 35.3512 1.70387 35.3512 3.49654V24.4387C35.3616 26.2418 33.8902 27.7028 32.0871 27.7028Z" fill="#F6C859"/>
<path d="M13.9515 24.0455C13.8065 24.0455 13.6614 23.9626 13.5889 23.8279C13.4852 23.6311 13.5681 23.3824 13.765 23.2891C14.3453 22.9886 15.1432 22.429 15.5991 21.455C16.1794 20.2219 16.0344 18.8851 15.7857 18.7711C15.7235 18.7401 15.4748 18.8644 15.3297 18.9473C14.9463 19.1442 14.4282 19.4136 13.8168 19.196C13.2158 18.9887 12.9257 18.4603 12.791 18.2012C11.8791 16.5329 11.5993 12.1807 12.563 10.015C12.8842 9.30001 13.3194 8.87516 13.8583 8.75081C14.4075 8.62647 14.8531 8.85444 15.2157 9.04096C15.5162 9.19639 15.6613 9.25856 15.7546 9.20675C16.1276 8.97878 16.1173 7.6006 15.5991 6.5022C15.1432 5.52814 14.3453 4.96858 13.765 4.66807C13.5681 4.56445 13.4852 4.32612 13.5889 4.12923C13.6925 3.93235 13.9308 3.84945 14.1277 3.95308C14.822 4.30539 15.7649 4.97894 16.3245 6.14988C16.8737 7.31045 17.1328 9.31038 16.1691 9.89066C15.682 10.1808 15.2157 9.94247 14.8427 9.75595C14.5629 9.61088 14.2935 9.47617 14.0344 9.53835C13.6821 9.62124 13.4334 10.0254 13.2884 10.357C12.449 12.2429 12.6873 16.3567 13.4852 17.8282C13.6199 18.0769 13.7857 18.3463 14.0655 18.4499C14.3349 18.5432 14.594 18.4292 14.9567 18.2427C15.309 18.0665 15.7028 17.8593 16.1276 18.0665C17.0291 18.5017 16.967 20.4498 16.3141 21.828C15.7546 22.999 14.8116 23.6725 14.1173 24.0248C14.0759 24.0248 14.0137 24.0455 13.9515 24.0455Z" fill="#7D662D"/>
<path d="M12.7398 10.7399H5.48616C5.26855 10.7399 5.08203 10.5637 5.08203 10.3358C5.08203 10.1078 5.25819 9.93164 5.48616 9.93164H12.7398C12.9574 9.93164 13.1439 10.1078 13.1439 10.3358C13.1439 10.5637 12.9677 10.7399 12.7398 10.7399Z" fill="#7D662D"/>
<path d="M12.7398 17.9938H5.48616C5.26855 17.9938 5.08203 17.8177 5.08203 17.5897C5.08203 17.3721 5.25819 17.1855 5.48616 17.1855H12.7398C12.9574 17.1855 13.1439 17.3617 13.1439 17.5897C13.1439 17.8177 12.9677 17.9938 12.7398 17.9938Z" fill="#7D662D"/>
<path d="M22.4168 24.0453C22.3547 24.0453 22.2925 24.0349 22.2303 24.0038C21.5361 23.6515 20.5931 22.978 20.0335 21.807C19.3807 20.4289 19.3185 18.4911 20.22 18.0455C20.6449 17.8383 21.0387 18.0455 21.391 18.2217C21.7537 18.4082 22.0127 18.5222 22.2821 18.4289C22.5826 18.3253 22.7588 18.0041 22.8624 17.8072C23.6707 16.3358 23.909 12.2323 23.0593 10.336C22.9142 10.0148 22.6655 9.60027 22.3132 9.51737C22.0956 9.46556 21.9609 9.24795 22.0127 9.03035C22.0645 8.81274 22.2821 8.67803 22.4997 8.72984C23.0386 8.85419 23.4738 9.27904 23.795 10.0044C24.7587 12.1598 24.4789 16.5119 23.5671 18.1906C23.4324 18.4497 23.1318 18.9781 22.5412 19.1854C21.9298 19.3926 21.4117 19.1336 21.0283 18.9367C20.8832 18.8642 20.6345 18.7398 20.5724 18.7605C20.334 18.8745 20.1786 20.2112 20.7589 21.4444C21.2148 22.4184 22.0127 22.978 22.593 23.2785C22.7899 23.3821 22.8728 23.6204 22.7692 23.8173C22.6966 23.9624 22.5619 24.0453 22.4168 24.0453Z" fill="#7D662D"/>
<path d="M20.8002 9.13346C20.6344 9.13346 20.479 9.02983 20.4168 8.85368C19.5567 6.2631 21.5774 4.26318 22.2302 3.93159C22.4271 3.82797 22.6758 3.91087 22.769 4.10775C22.8726 4.30464 22.7898 4.55333 22.5929 4.64659C22.3027 4.79166 20.4479 6.38745 21.1836 8.59462C21.2561 8.80186 21.1421 9.02984 20.9245 9.10237C20.8831 9.1231 20.8416 9.13346 20.8002 9.13346Z" fill="#7D662D"/>
<path d="M30.8726 10.7399H23.619C23.4014 10.7399 23.2148 10.5637 23.2148 10.3358C23.2148 10.1078 23.391 9.93164 23.619 9.93164H30.8726C31.0902 9.93164 31.2767 10.1078 31.2767 10.3358C31.2767 10.5637 31.1005 10.7399 30.8726 10.7399Z" fill="#7D662D"/>
<path d="M30.8726 17.9938H23.619C23.4014 17.9938 23.2148 17.8177 23.2148 17.5897C23.2148 17.3721 23.391 17.1855 23.619 17.1855H30.8726C31.0902 17.1855 31.2767 17.3617 31.2767 17.5897C31.2767 17.8177 31.1005 17.9938 30.8726 17.9938Z" fill="#7D662D"/>
</svg>
