<svg width="22" height="19" viewBox="0 0 22 19" fill="none" xmlns="http://www.w3.org/2000/svg">
<path d="M22.0003 9.03281C22.0003 9.53907 21.6241 9.95746 21.136 10.0237L21.0003 10.0328L1.00027 10.0328C0.447982 10.0328 0.000266373 9.58509 0.000266373 9.03281C0.000266373 8.52655 0.376472 8.10815 0.864573 8.04194L1.00027 8.03281L21.0003 8.03281C21.5526 8.03281 22.0003 8.48052 22.0003 9.03281Z" fill="white"/>
<path d="M9.77225 16.3567C10.1636 16.7464 10.165 17.3796 9.77529 17.7709C9.42104 18.1267 8.86556 18.1602 8.47345 17.8705L8.36108 17.774L0.294416 9.74196C-0.0624327 9.38665 -0.0948955 8.82916 0.197043 8.43706L0.294358 8.32476L8.36102 0.291431C8.75236 -0.0982841 9.38552 -0.0969733 9.77523 0.294359C10.1295 0.650115 10.1606 1.20573 9.86936 1.59661L9.77231 1.70857L2.4176 9.03373L9.77225 16.3567Z" fill="white"/>
</svg>
