<svg width="15" height="17" viewBox="0 0 15 17" fill="none" xmlns="http://www.w3.org/2000/svg">
<path fill-rule="evenodd" clip-rule="evenodd" d="M13.8939 2.74002L8.68176 0.506237C7.92711 0.182817 7.07289 0.182817 6.31824 0.506237L1.10608 2.74002C0.738397 2.8976 0.5 3.25914 0.5 3.65917V8.91206C0.5 10.8498 1.43579 12.6682 3.01257 13.7945L6.33752 16.1694C7.03292 16.6661 7.96708 16.6661 8.66248 16.1694L11.9874 13.7945C13.5642 12.6682 14.5 10.8498 14.5 8.91206V3.65917C14.5 3.25914 14.2616 2.8976 13.8939 2.74002ZM11.2809 6.62469C11.6259 6.19343 11.556 5.56414 11.1247 5.21913C10.6934 4.87412 10.0641 4.94404 9.71913 5.37531L6.41708 9.50287L5.20711 8.29289C4.81658 7.90237 4.18342 7.90237 3.79289 8.29289C3.40237 8.68342 3.40237 9.31658 3.79289 9.70711L5.39788 11.3121C6.03005 11.9443 7.07136 11.8866 7.62985 11.1885L11.2809 6.62469Z" fill="white"/>
</svg>
