<svg width="16" height="26" viewBox="0 0 16 26" fill="none" xmlns="http://www.w3.org/2000/svg">
<path d="M15.2004 23.4C15.2004 24.2848 14.4852 25 13.6004 25C12.7156 25 12.0004 24.2848 12.0004 23.4V15.4C11.1156 15.4 10.4004 14.6848 10.4004 13.8C10.4004 6.7248 12.5476 1 15.2004 1V23.4Z" stroke="white" stroke-miterlimit="10" stroke-linecap="round" stroke-linejoin="round"/>
<path d="M0.800781 1V9C0.800781 9.8848 1.51598 10.6 2.40078 10.6H5.60078C6.48558 10.6 7.20078 9.8848 7.20078 9V1" stroke="white" stroke-miterlimit="10" stroke-linecap="round" stroke-linejoin="round"/>
<path d="M5.60234 10.5996V23.3996C5.60234 24.2844 4.88714 24.9996 4.00234 24.9996C3.11754 24.9996 2.40234 24.2844 2.40234 23.3996V10.5996" stroke="white" stroke-miterlimit="10" stroke-linecap="round" stroke-linejoin="round"/>
<path d="M4 1V10.6" stroke="white" stroke-miterlimit="10" stroke-linecap="round" stroke-linejoin="round"/>
</svg>
