<svg width="20" height="22" viewBox="0 0 20 22" fill="none" xmlns="http://www.w3.org/2000/svg">
<path d="M17.7083 21.8197H2.29172C1.02753 21.8197 0 20.7071 0 19.3381V4.44895C0 3.08002 1.02753 1.96753 2.29172 1.96753H17.7083C18.9725 1.96753 20 3.08002 20 4.44895V19.3381C20 20.7071 18.9725 21.8197 17.7083 21.8197ZM2.29172 3.32109C1.71753 3.32109 1.25 3.82719 1.25 4.44895V19.3381C1.25 19.9599 1.71753 20.4662 2.29172 20.4662H17.7083C18.2825 20.4662 18.75 19.9599 18.75 19.3381V4.44895C18.75 3.82719 18.2825 3.32109 17.7083 3.32109H2.29172Z" fill="black"/>
<path d="M19.375 8.71607H0.625C0.279999 8.71607 0 8.40479 0 8.02124C0 7.6377 0.279999 7.32642 0.625 7.32642H19.375C19.72 7.32642 20 7.6377 20 8.02124C20 8.40479 19.72 8.71607 19.375 8.71607Z" fill="black"/>
<path d="M4.8614 5.54051C4.50665 5.54051 4.21875 5.24035 4.21875 4.8705V0.850431C4.21875 0.480584 4.50665 0.18042 4.8614 0.18042C5.21614 0.18042 5.50405 0.480584 5.50405 0.850431V4.8705C5.50405 5.24035 5.21614 5.54051 4.8614 5.54051Z" fill="black"/>
<path d="M15.1348 5.54051C14.7801 5.54051 14.4922 5.24035 14.4922 4.8705V0.850431C14.4922 0.480584 14.7801 0.18042 15.1348 0.18042C15.4896 0.18042 15.7775 0.480584 15.7775 0.850431V4.8705C15.7775 5.24035 15.4896 5.54051 15.1348 5.54051Z" fill="black"/>
<rect x="4.21875" y="11.8943" width="1.2853" height="1.19113" fill="black"/>
<rect x="6.79688" y="11.8943" width="1.2853" height="1.19113" fill="black"/>
<rect x="9.375" y="11.8943" width="1.2853" height="1.19113" fill="black"/>
<rect x="11.9141" y="11.8943" width="1.2853" height="1.19113" fill="black"/>
<rect x="14.4922" y="11.8943" width="1.2853" height="1.19113" fill="black"/>
<rect x="4.21875" y="15.6638" width="1.2853" height="1.19113" fill="black"/>
<rect x="6.79688" y="15.6638" width="1.2853" height="1.19113" fill="black"/>
<rect x="9.375" y="15.6638" width="1.2853" height="1.19113" fill="black"/>
<rect x="11.9141" y="15.6638" width="1.2853" height="1.19113" fill="black"/>
<rect x="14.4922" y="15.6638" width="1.2853" height="1.19113" fill="black"/>
</svg>
