<svg width="16" height="18" viewBox="0 0 16 18" fill="none" xmlns="http://www.w3.org/2000/svg">
<path d="M14.1666 17.311H1.83337C0.822021 17.311 0 16.4208 0 15.3257V3.41434C0 2.31919 0.822021 1.4292 1.83337 1.4292H14.1666C15.178 1.4292 16 2.31919 16 3.41434V15.3257C16 16.4208 15.178 17.311 14.1666 17.311V17.311ZM1.83337 2.51205C1.37402 2.51205 1 2.91693 1 3.41434V15.3257C1 15.8231 1.37402 16.2281 1.83337 16.2281H14.1666C14.626 16.2281 15 15.8231 15 15.3257V3.41434C15 2.91693 14.626 2.51205 14.1666 2.51205H1.83337Z" fill="#013F6B"/>
<path d="M15.5 6.82901H0.5C0.223999 6.82901 0 6.57998 0 6.27315C0 5.96631 0.223999 5.71729 0.5 5.71729H15.5C15.776 5.71729 16 5.96631 16 6.27315C16 6.57998 15.776 6.82901 15.5 6.82901Z" fill="#013F6B"/>
<path d="M3.88912 4.28807C3.60532 4.28807 3.375 4.04794 3.375 3.75206V0.536009C3.375 0.240131 3.60532 0 3.88912 0C4.17291 0 4.40324 0.240131 4.40324 0.536009V3.75206C4.40324 4.04794 4.17291 4.28807 3.88912 4.28807Z" fill="#013F6B"/>
<path d="M12.1118 4.28807C11.828 4.28807 11.5977 4.04794 11.5977 3.75206V0.536009C11.5977 0.240131 11.828 0 12.1118 0C12.3956 0 12.6259 0.240131 12.6259 0.536009V3.75206C12.6259 4.04794 12.3956 4.28807 12.1118 4.28807Z" fill="#013F6B"/>
<rect x="3.375" y="9.37012" width="1.02824" height="0.952905" fill="#013F6B"/>
<rect x="5.42969" y="9.37012" width="1.02824" height="0.952905" fill="#013F6B"/>
<rect x="7.48438" y="9.37012" width="1.02824" height="0.952905" fill="#013F6B"/>
<rect x="9.53906" y="9.37012" width="1.02824" height="0.952905" fill="#013F6B"/>
<rect x="11.5977" y="9.37012" width="1.02824" height="0.952905" fill="#013F6B"/>
<rect x="3.375" y="12.3877" width="1.02824" height="0.952905" fill="#013F6B"/>
<rect x="5.42969" y="12.3877" width="1.02824" height="0.952905" fill="#013F6B"/>
<rect x="7.48438" y="12.3877" width="1.02824" height="0.952905" fill="#013F6B"/>
<rect x="9.53906" y="12.3877" width="1.02824" height="0.952905" fill="#013F6B"/>
<rect x="11.5938" y="12.3877" width="1.02824" height="0.952905" fill="#013F6B"/>
</svg>
