<svg width="23" height="19" viewBox="0 0 23 19" fill="none" xmlns="http://www.w3.org/2000/svg">
<path d="M0.333008 9.63419C0.333008 9.12792 0.709213 8.70953 1.19731 8.64331L1.33301 8.63419L21.333 8.63419C21.8853 8.63419 22.333 9.0819 22.333 9.63419C22.333 10.1404 21.9568 10.5588 21.4687 10.6251L21.333 10.6342L1.33301 10.6342C0.780723 10.6342 0.333008 10.1865 0.333008 9.63419Z" fill="white"/>
<path d="M12.561 2.31029C12.1697 1.9206 12.1683 1.28744 12.558 0.896076C12.9122 0.54029 13.4677 0.50682 13.8598 0.796448L13.9722 0.89303L22.0389 8.92503C22.3957 9.28035 22.4282 9.83783 22.1362 10.2299L22.0389 10.3422L13.9723 18.3756C13.5809 18.7653 12.9478 18.764 12.558 18.3726C12.2038 18.0169 12.1726 17.4613 12.4639 17.0704L12.561 16.9584L19.9157 9.63326L12.561 2.31029Z" fill="white"/>
</svg>
