<svg width="83" height="53" viewBox="0 0 83 53" fill="none" xmlns="http://www.w3.org/2000/svg">
<path d="M78.7178 22.5218V4.48365C78.7178 2.0103 76.4379 0 73.635 0H9.36714C6.56426 0 4.28438 2.0103 4.28438 4.48365V22.5237C1.86147 22.8474 0 24.6958 0 26.9207V38.0866C0 38.8658 0.717265 39.4983 1.60104 39.4983H3.31522V46.4628C3.31522 47.2421 4.03248 47.8746 4.91626 47.8746H7.80667V50.5926C7.80667 51.3719 8.52393 52.0043 9.40771 52.0043C10.2915 52.0043 11.0087 51.3719 11.0087 50.5926V47.8746H71.9913V50.5926C71.9913 51.3719 72.7085 52.0043 73.5923 52.0043C74.4761 52.0043 75.1933 51.3719 75.1933 50.5926V47.8746H78.0837C78.9675 47.8746 79.6848 47.2421 79.6848 46.4628V39.4983H81.399C82.2827 39.4983 83 38.8658 83 38.0866V26.9207C83.0021 24.6958 81.1407 22.8474 78.7178 22.5218ZM7.48432 4.48365C7.48432 3.56885 8.32754 2.82346 9.36714 2.82346H73.6329C74.6703 2.82346 75.5157 3.56885 75.5157 4.48365V22.4728H69.895C71.0136 21.4112 72.1514 20.295 73.3297 19.0998C73.8527 18.5689 73.8527 17.7784 73.3297 17.2457C68.6974 12.5512 64.8207 9.13295 59.4967 5.04834C58.8948 4.5853 57.9982 4.5853 57.394 5.04834C52.0722 9.13106 48.1934 12.5512 43.5632 17.2457C43.0381 17.7765 43.0381 18.5671 43.5632 19.0998C44.7416 20.295 45.8794 21.4112 46.998 22.4728H36.0042C37.1228 21.4112 38.2606 20.295 39.4389 19.0998C39.9641 18.5689 39.9641 17.7784 39.4389 17.2457C34.8066 12.5531 30.9299 9.13295 25.606 5.04834C25.004 4.5853 24.1074 4.5853 23.5033 5.04834C18.1814 9.13295 14.3026 12.5512 9.67241 17.2457C9.14727 17.7765 9.14727 18.5671 9.67241 19.0998C10.8508 20.295 11.9886 21.4112 13.1072 22.4728H7.48432V4.48365ZM51.4147 22.471C49.9417 21.1383 48.4538 19.7209 46.8998 18.1718C50.7273 14.3526 54.1151 11.3654 58.4443 7.99039C62.7735 11.3635 66.1635 14.3526 69.991 18.1718C68.4369 19.7209 66.949 21.1383 65.4761 22.471H51.4147ZM17.5239 22.471C16.0509 21.1364 14.5631 19.7209 13.009 18.1718C16.8365 14.3545 20.2243 11.3654 24.5557 7.99039C28.8849 11.3654 32.2748 14.3526 36.1024 18.1718C34.5483 19.7209 33.0604 21.1383 31.5874 22.471H17.5239ZM76.4848 45.0492H6.5173V39.4964H76.4827L76.4848 45.0492ZM79.8001 36.673H3.20208V26.9188C3.20208 26.0229 4.02821 25.2944 5.04647 25.2944H77.9578C78.9739 25.2944 79.8022 26.0229 79.8022 26.9188L79.8001 36.673Z" fill="#FCB040"/>
</svg>
