
<svg version="1.1" id="Layer_1" xmlns="http://www.w3.org/2000/svg" xmlns:xlink="http://www.w3.org/1999/xlink" x="0px" y="0px"
	 viewBox="0 0 45 36.8" style="enable-background:new 0 0 45 36.8;" xml:space="preserve">
<style type="text/css">
	.st0{fill:#fcb750;}
</style>
<g>
	<path class="st0" d="M0,22.4C0.2,22.1,0.5,22,0.9,22c2.4,0,4.8,0,7.2,0c0.2,0,0.3,0,0.5,0c0.8-4.7,4.6-6.8,7.9-6.8
		c3.2,0,6.9,2.2,7.7,6.8c4.3,0,8.6,0,12.9,0c0.3-3.5-0.5-6.6-2.3-9.7c-0.1,0.2-0.2,0.3-0.3,0.4c-1.1,1.2-2.2,2.3-3.4,3.5
		c-0.7,0.7-1.4,0.6-1.8-0.3c-0.8-1.6-0.7-3.2,0.1-4.8c0.1-0.1,0.1-0.3,0.2-0.4c-0.9-0.2-1.8-0.4-2.7-0.6c-0.2,0-0.4-0.1-0.6-0.1
		c-0.8-0.2-1-0.8-0.6-1.5c0.8-1.4,2.1-2.2,3.7-2.6c0.2,0,0.3-0.1,0.5-0.1c0,0,0-0.1,0-0.1c-0.6-0.3-1.3-0.7-1.9-1
		c-0.4-0.2-0.8-0.4-0.8-0.9c0-0.5,0.3-0.8,0.8-0.9c0.7-0.2,1.4-0.4,2.2-0.5c0.4-0.1,0.7,0.2,0.7,0.6c0,0.4-0.2,0.7-0.7,0.7
		c-0.3,0-0.5,0.1-0.9,0.1c0.5,0.3,0.8,0.5,1.2,0.8c0.4,0.3,0.8,0.7,1.2,1c0.6,0.5,1.3,0.9,1.9,1.4c0,0,0.1-0.1,0.1-0.1
		c0-0.6,0-1.1,0-1.7c0-0.1-0.1-0.3-0.2-0.3c-0.2-0.2-0.5-0.4-0.8-0.6c-0.3-0.2-0.4-0.6-0.2-0.9c0.2-0.3,0.6-0.4,0.9-0.2
		c0.2,0.1,0.4,0.3,0.7,0.5c0.1-0.1,0.2-0.3,0.3-0.4c1-1.6,2.5-2.4,4.4-2.5c0.9,0,1.3,0.5,1,1.3c-0.3,1-0.6,2-0.9,3
		c0.5,0.1,0.9,0.1,1.4,0.2c1.4,0.3,2.5,1.1,3.3,2.3c0.5,0.8,0.2,1.5-0.7,1.7c-1.5,0.4-3.1,0.8-4.6,1.2c-0.1,0-0.2,0.1-0.3,0.1
		c2.7,3.4,4.3,7.1,4.4,11.4c0.7,0,1.3,0,1.9,0c0.4,0,0.7,0.2,0.7,0.5c0,0.2-0.2,0.5-0.3,0.7c-0.1,0.1-0.3,0.1-0.5,0.1
		c-0.6,0-1.2,0-1.8,0c-0.2,0.9-0.3,1.8-0.5,2.7c0.9,0.3,1.7,0.6,2.6,0.9c0.3,0.1,0.5,0.4,0.5,0.7c0,0.5-0.5,0.7-1,0.5
		c-0.9-0.3-1.9-0.6-2.9-0.8c-0.7-0.1-1.4-0.1-2.1-0.1c-0.1,0.4-0.1,0.6-0.2,0.9c-0.7,2.1-3.3,2.9-5,1.4c-0.2-0.2-0.4-0.2-0.6-0.2
		c-0.6,0.1-1.1,0.1-1.7,0.2c-1.3,0.1-2.3,0.7-3.1,1.7c0.3,0,0.4,0,0.6,0c4.9,0,9.9,0,14.8,0c0.1,0,0.2,0,0.4,0
		c0.6,0,0.9,0.2,0.9,0.7c0,0.4-0.3,0.7-0.9,0.7c-6.2,0-12.5,0-18.7,0c-0.1,0-0.3,0-0.4,0c-0.3-0.1-0.5-0.3-0.5-0.7
		c0-0.3,0.2-0.6,0.6-0.6c0.5,0,0.9,0,1.4,0c0.3,0,0.4-0.1,0.6-0.3c1.1-1.8,2.6-2.7,4.7-2.8c0.2,0,0.5,0,0.7,0c0.1,0,0.2,0,0.3-0.1
		c-0.6-2.6,1.6-4.4,3.9-4c0.1-0.3,0.1-0.5,0.2-0.8c-0.2,0-0.4,0-0.6,0c-11.8,0-23.5,0-35.3,0c-0.4,0-0.8-0.1-1-0.5
		C0,22.7,0,22.6,0,22.4z M22.7,22c-0.4-2.8-3-5.7-6.8-5.4c-3.6,0.2-5.8,3.2-5.9,5.4C14.2,22,18.5,22,22.7,22z M41.1,22.7
		c-0.1-4.8-1.7-8.4-4.3-11.6c-0.3-0.3-0.5-0.1-0.8,0c-0.3,0.2-0.2,0.4,0,0.6c0.9,1.4,1.5,2.9,2,4.5c0.7,2.7,0.7,5.5,0.1,8.3
		c0,0.2,0,0.4,0,0.5c0.4,0.8,1,1.2,1.9,0.9c0.1,0,0.1,0,0.2,0c0.3,0.1,0.5,0,0.5-0.4C40.8,24.4,41,23.3,41.1,22.7z M42.3,8.1
		c-1.7-2.3-5.2-2-6.6,0.5c-0.4,0.7-0.9,1-1.6,0.9c-1.9,0-3.6,1.3-4,3.1c-0.2,0.8-0.1,1.5,0.2,2.3c0.1-0.1,0.2-0.2,0.3-0.3
		c1.4-1.5,2.9-3,4.3-4.5c0.2-0.2,0.6-0.4,0.9-0.5c1-0.3,2-0.5,3-0.8C40,8.7,41.1,8.4,42.3,8.1z M35.9,25.4c-1,0-1.8,0.8-1.8,1.8
		c0,1,0.8,1.8,1.8,1.8c1,0,1.8-0.8,1.8-1.8C37.6,26.2,36.9,25.4,35.9,25.4z M27.1,8.8C28,9,28.9,9.1,29.8,9.4
		c0.5,0.1,0.9,0.1,1.3-0.2c0.4-0.3,0.9-0.5,1.3-0.7c0.2-0.1,0.4-0.1,0.7-0.2C31.2,6.4,28.1,7.1,27.1,8.8z M35.1,7.1
		c0.6-0.7,1.3-1.2,2.2-1.5c0.1,0,0.2-0.2,0.2-0.3c0.2-0.7,0.5-1.5,0.7-2.2c0.1-0.3,0.2-0.5,0.2-0.8C36.2,2.3,34.3,5.1,35.1,7.1z"/>
	<path class="st0" d="M0,35.9c0.2-0.3,0.6-0.4,1-0.4c1.6,0,3.2,0,4.8,0c0.1,0,0.3,0,0.4,0c0.2,0.2,0.4,0.4,0.5,0.6
		c0.1,0.3-0.1,0.6-0.4,0.7c-0.2,0-0.3,0-0.5,0c-1.6,0-3.2,0-4.8,0c-0.4,0-0.7-0.1-1-0.4C0,36.2,0,36.1,0,35.9z"/>
	<path class="st0" d="M26.7,35.5c5.7,0,11.5,0,17.2,0c0.2,0,0.4,0,0.6,0c0.3,0.1,0.5,0.3,0.5,0.6c0,0.3-0.2,0.6-0.5,0.6
		c-0.2,0-0.3,0-0.5,0c-11.5,0-23.1,0-34.6,0c-0.1,0-0.2,0-0.4,0c-0.4,0-0.6-0.3-0.6-0.7c0-0.3,0.3-0.6,0.6-0.6c0.2,0,0.3,0,0.5,0
		C15.3,35.5,21,35.5,26.7,35.5z"/>
	<path class="st0" d="M16.4,26.4c-1.5,0-3,0-4.5,0c-0.6,0-1-0.5-0.7-1c0.1-0.2,0.4-0.3,0.7-0.3c3,0,6,0,9,0c0.5,0,0.8,0.3,0.8,0.7
		c0,0.4-0.3,0.6-0.7,0.6C19.4,26.4,17.9,26.4,16.4,26.4z"/>
	<path class="st0" d="M16.3,27.6c0.9,0,1.8,0,2.8,0c0.5,0,0.8,0.2,0.8,0.7c0,0.4-0.3,0.7-0.8,0.7c-1.8,0-3.7,0-5.5,0
		c-0.5,0-0.8-0.3-0.8-0.7c0-0.4,0.3-0.7,0.8-0.7C14.5,27.6,15.4,27.6,16.3,27.6z"/>
	<path class="st0" d="M6.2,7.2c0.2,0.1,0.6,0.3,1,0.3c0.4,0,0.8-0.3,1.2-0.3c0.6,0,1.1,0.2,1.4,0.6c0.2,0.3,0.2,0.7,0,0.9
		C9.5,9,9.2,9,8.9,8.8c-0.5-0.4-0.6-0.4-1.1,0c-0.4,0.4-0.8,0.4-1.2,0c-0.4-0.4-0.6-0.4-1.1,0C5.2,9,4.8,9,4.5,8.7
		c-0.2-0.3-0.2-0.6,0-0.9C4.9,7.4,5.4,7.2,6.2,7.2z"/>
	<path class="st0" d="M18,0.3c1-0.5,1.8-0.5,2.4,0.1c0.4,0.3,0.4,0.7,0.2,1c-0.3,0.3-0.6,0.3-1,0c-0.3-0.3-0.6-0.2-0.9,0.1
		c-0.5,0.5-0.8,0.5-1.4,0c-0.3-0.3-0.6-0.3-0.9,0c-0.4,0.3-0.7,0.3-1,0c-0.3-0.3-0.2-0.7,0.1-1C16.2-0.1,17-0.2,18,0.3z"/>
	<path class="st0" d="M16.3,31.5c-0.4,0-0.8,0-1.1,0c-0.5,0-0.7-0.3-0.7-0.7c0-0.4,0.3-0.6,0.7-0.7c0.8,0,1.5,0,2.3,0
		c0.5,0,0.7,0.3,0.7,0.6c0,0.4-0.3,0.6-0.7,0.7c0,0-0.1,0-0.1,0C17.1,31.5,16.7,31.5,16.3,31.5C16.3,31.5,16.3,31.5,16.3,31.5z"/>
	<path class="st0" d="M17,12.4c0,0.2,0,0.4,0,0.5c-0.1,0.4-0.3,0.5-0.6,0.5c-0.4,0-0.6-0.2-0.6-0.5c0-0.3,0-0.6,0-1
		c0-0.4,0.3-0.6,0.7-0.6c0.4,0,0.6,0.2,0.6,0.6C17,12.1,17,12.3,17,12.4C17,12.4,17,12.4,17,12.4z"/>
	<path class="st0" d="M6.8,16.8c0.5,0.3,0.9,0.6,1.3,0.9c0.1,0.1,0,0.5-0.1,0.7c-0.1,0.2-0.5,0.2-0.7,0.2C7,18.5,6.6,18.3,6.4,18
		c-0.2-0.1-0.2-0.5-0.2-0.7C6.3,17.1,6.5,17,6.8,16.8z"/>
	<path class="st0" d="M25.2,18.7c-0.2-0.2-0.5-0.3-0.6-0.5c-0.1-0.2,0-0.6,0.2-0.7c0.2-0.2,0.5-0.4,0.9-0.5c0.2-0.1,0.6,0,0.7,0.2
		c0.1,0.2,0.2,0.6,0,0.7C26.1,18.2,25.6,18.4,25.2,18.7z"/>
	<path class="st0" d="M12,14.2c-0.2,0.2-0.3,0.5-0.5,0.6c-0.2,0.1-0.5,0-0.7-0.1c-0.3-0.3-0.5-0.7-0.6-1c-0.1-0.2,0.1-0.5,0.3-0.7
		c0.1-0.1,0.6-0.1,0.7,0C11.5,13.3,11.7,13.8,12,14.2z"/>
	<path class="st0" d="M21.8,12.9c0.5,0,0.9,0.4,0.7,0.8c-0.1,0.3-0.3,0.7-0.6,1c-0.1,0.1-0.5,0.2-0.7,0.1c-0.2-0.1-0.4-0.4-0.4-0.6
		c0.2-0.5,0.4-0.9,0.7-1.3C21.6,12.9,21.7,12.9,21.8,12.9z"/>
</g>
</svg>
