<svg width="72" height="53" viewBox="0 0 72 53" fill="none" xmlns="http://www.w3.org/2000/svg">
<path d="M59.1911 40.6628H70.9052V42.1596C70.9052 47.4434 65.7575 51.8143 59.3345 51.8143H11.8206C5.39755 51.8143 0.25 47.4434 0.25 42.1596V40.6628H11.964L12.0832 40.193C4.95275 36.3286 0.25 29.6235 0.25 22.0366V12.5984H11.5623C11.6098 12.5984 11.6532 12.599 11.6985 12.5997C11.7321 12.6001 11.7668 12.6006 11.8048 12.6009L11.9634 12.602L12.032 12.4591C12.0415 12.4392 12.0508 12.4198 12.0599 12.4006C12.0811 12.3562 12.1015 12.3136 12.1226 12.2708C12.1226 12.2708 12.1226 12.2708 12.1226 12.2707L16.4496 3.51774L26.9232 7.15304C26.9232 7.15304 26.9232 7.15305 26.9232 7.15305C26.9767 7.17164 27.0302 7.19085 27.0851 7.21054C27.1058 7.21796 27.1267 7.22546 27.1478 7.23302L27.2842 7.28176L27.3943 7.18768C27.4244 7.162 27.4492 7.14028 27.4727 7.11966C27.5019 7.09405 27.5292 7.07012 27.5623 7.04238L27.4018 6.85075L27.5623 7.04237L35.5775 0.326163L43.5928 7.04226C43.6259 7.07 43.6532 7.09392 43.6824 7.11952C43.706 7.14016 43.7308 7.16188 43.7608 7.18757L43.871 7.28164L44.0073 7.2329C44.0304 7.22467 44.053 7.21653 44.0754 7.20849C44.1285 7.18941 44.1801 7.17086 44.232 7.15285L44.232 7.15284L54.7055 3.51762L59.0324 12.2707L59.0326 12.271C59.0542 12.3147 59.0751 12.3584 59.0969 12.404C59.1055 12.422 59.1142 12.4403 59.1232 12.459L59.1918 12.6019L59.3503 12.6008C59.3884 12.6005 59.423 12.6 59.4566 12.5995C59.5019 12.5989 59.5454 12.5982 59.5929 12.5982H70.905V22.0365C70.905 29.6234 66.2023 36.3285 59.072 40.193L59.1911 40.6628ZM52.7996 7.66294L52.7019 7.46524L52.4935 7.53756L46.6257 9.57415L46.2845 9.6926L46.5156 9.97026C47.6085 11.2834 48.5275 12.6929 49.247 14.1693L49.3448 14.3699L49.5552 14.2955C51.2952 13.6798 53.1321 13.2191 55.0413 12.9341L55.3804 12.8835L55.2285 12.5761L52.7996 7.66294ZM35.7381 4.749L35.5775 4.61446L35.4169 4.749L30.1893 9.12939C28.0008 10.9631 26.2875 13.172 25.1744 15.5793L25.0748 15.7948L25.285 15.9054C29.7389 18.2488 33.2767 21.6923 35.3548 25.769L35.5775 26.2059L35.8002 25.769C37.8783 21.6923 41.4161 18.2488 45.8701 15.9054L46.0802 15.7948L45.9806 15.5793C44.8674 13.172 43.1542 10.9631 40.9657 9.12939L35.7381 4.749ZM18.6615 7.53756L18.4531 7.46524L18.3554 7.66294L15.9265 12.5761L15.7746 12.8835L16.1138 12.9341C18.0229 13.219 19.8598 13.6798 21.5999 14.2955L21.8102 14.3699L21.908 14.1694C22.6275 12.693 23.5465 11.2834 24.6395 9.97039L24.8706 9.69273L24.5293 9.57427L18.6615 7.53756ZM4.16924 15.5917H3.91924V15.8417V22.0365C3.91924 32.3469 13.9124 40.6627 26.1 40.6627H33.4929H33.7429V40.4127V34.2179C33.7429 23.9076 23.7497 15.5917 11.5621 15.5917H4.16924ZM66.9341 43.9863L67.0458 43.6562H66.6973H4.45789H4.10939L4.22107 43.9863C5.17156 46.7958 8.23828 48.8207 11.8206 48.8207H59.3345C62.9169 48.8207 65.9835 46.7958 66.9341 43.9863ZM37.4121 40.4127V40.6627H37.6621H45.055C57.2426 40.6627 67.2358 32.3469 67.2358 22.0365V15.8417V15.5917H66.9858H59.5929C47.4053 15.5917 37.4121 23.9076 37.4121 34.2179V40.4127Z" fill="#FCB040" stroke="white" stroke-width="0.5"/>
</svg>
