<svg width="28" height="24" viewBox="0 0 28 24" fill="none" xmlns="http://www.w3.org/2000/svg">
<path d="M27.4017 22.052L26.4917 18.856C26.4497 18.709 26.3167 18.6 26.1547 18.579C25.9927 18.559 25.8347 18.632 25.7527 18.764L24.6977 20.462L22.0627 19.02V10.65C22.0627 10.63 22.0597 10.61 22.0557 10.59C22.0597 10.574 22.0617 10.559 22.0627 10.544C22.0627 10.41 21.9867 10.286 21.8627 10.219L14.1177 5.98003V3.13303H16.2177C16.3817 3.13303 16.5277 3.04103 16.5907 2.90103C16.6527 2.76003 16.6187 2.59803 16.5027 2.49103L13.9997 0.150027C13.8427 0.00402734 13.5877 0.00402734 13.4297 0.150027L10.9257 2.49003C10.8107 2.59703 10.7757 2.75903 10.8387 2.90003C10.9007 3.04003 11.0487 3.13203 11.2107 3.13203H13.3107V5.98003L5.56566 10.218C5.44266 10.285 5.36566 10.408 5.36566 10.543L5.37266 10.589C5.36866 10.609 5.36666 10.629 5.36666 10.649V19.019L2.72966 20.463L1.67566 18.764C1.59366 18.632 1.43566 18.56 1.27266 18.58C1.11166 18.6 0.978656 18.709 0.936656 18.856L0.0266562 22.053C-0.0313438 22.254 0.0966562 22.46 0.312656 22.514L3.73566 23.364C3.89266 23.404 4.06066 23.35 4.15966 23.229C4.25866 23.108 4.26966 22.943 4.18766 22.811L3.13466 21.114L5.76866 19.673L13.5097 23.908L13.5247 23.914C13.5467 23.924 13.5697 23.934 13.5937 23.941L13.6177 23.948C13.6807 23.964 13.7467 23.964 13.8087 23.948L13.8317 23.941C13.8557 23.934 13.8787 23.925 13.9017 23.914C13.9057 23.911 13.9117 23.911 13.9157 23.908L21.6597 19.673L24.2937 21.115L23.2407 22.812C23.1677 22.928 23.1677 23.072 23.2397 23.189C23.3117 23.305 23.4447 23.377 23.5897 23.377C23.6247 23.377 23.6597 23.373 23.6927 23.365L27.1157 22.515C27.3307 22.461 27.4587 22.255 27.4017 22.053V22.052ZM13.7137 0.951027L15.2447 2.38003H12.1837L13.7137 0.950027V0.951027ZM0.909656 21.88L1.46566 19.927L3.00166 22.4L0.909656 21.88ZM13.7137 6.63203L20.8617 10.542L13.7137 14.452L6.56666 10.542L13.7137 6.63203ZM6.17166 11.2L13.3107 15.105V22.925L6.17166 19.02V11.2ZM14.1177 22.925V15.105L21.2557 11.2V19.02L14.1177 22.925ZM24.4267 22.401L25.9617 19.928L26.5187 21.881L24.4267 22.401Z" fill="black"/>
</svg>
