<svg width="24" height="24" viewBox="0 0 24 24" fill="none" xmlns="http://www.w3.org/2000/svg">
<path d="M22.738 6.143H22.635V2.172C22.635 0.974 21.661 0 20.463 0H3.537C2.339 0 1.365 0.974 1.365 2.172V6.142H1.262C0.566 6.143 0 6.71 0 7.405V8.3C0 8.69 0.177 9.038 0.455 9.27V17.416C0.455 17.826 0.652 18.19 0.955 18.421V19.691C0.955 20.009 1.142 20.285 1.411 20.416V23.422C1.411 23.742 1.671 24.001 1.99 24.001H3.355C3.674 24.001 3.934 23.741 3.934 23.421V22.545H20.066V23.422C20.066 23.742 20.326 24.001 20.646 24.001H22.01C22.33 24.001 22.59 23.741 22.59 23.421V20.871C22.858 20.74 23.045 20.464 23.045 20.146V18.42C23.348 18.19 23.545 17.825 23.545 17.415V9.269C23.823 9.037 24 8.689 24 8.299V7.404C24 6.709 23.434 6.143 22.738 6.143V6.143ZM2.068 2.172C2.068 1.362 2.727 0.703 3.537 0.703H20.463C21.273 0.703 21.932 1.362 21.932 2.172V6.142H20.314V2.194C20.314 1.984 20.208 1.794 20.03 1.684C19.851 1.574 19.633 1.564 19.445 1.657L18.13 2.315C17.972 2.394 17.796 2.435 17.62 2.435H14.343C14.167 2.435 13.99 2.394 13.833 2.315L12.517 1.657C12.353 1.575 12.164 1.573 12 1.648C11.836 1.573 11.647 1.575 11.483 1.658L10.167 2.315C10.01 2.394 9.833 2.435 9.657 2.435H6.38C6.204 2.435 6.028 2.394 5.87 2.315L4.555 1.657C4.367 1.564 4.149 1.573 3.97 1.684C3.792 1.794 3.686 1.984 3.686 2.194V6.144H2.068V2.172ZM21.886 23.297H20.77V22.192C20.77 21.998 20.613 21.841 20.419 21.841H3.582C3.388 21.841 3.231 21.998 3.231 22.192V23.297H2.114V20.497H9.343C10 20.497 10.661 20.551 11.31 20.659L12.029 20.779C12.715 20.893 13.416 20.951 14.111 20.951H21.886V23.297ZM22.341 20.145C22.341 20.202 22.295 20.248 22.238 20.248H14.11C13.453 20.248 12.791 20.194 12.143 20.086L11.424 19.966C10.738 19.851 10.037 19.793 9.342 19.793H1.762C1.704 19.793 1.658 19.747 1.658 19.69V18.675L1.716 18.676H4.946C5.14 18.676 5.298 18.519 5.298 18.325C5.298 18.131 5.14 17.973 4.946 17.973H1.716C1.408 17.973 1.157 17.723 1.157 17.415V9.556C1.191 9.559 1.226 9.561 1.261 9.561H19.782C18.948 10.822 17.387 11.959 15.31 12.803C12.846 13.803 9.876 14.333 6.72 14.333C6.527 14.333 6.37 14.49 6.37 14.685C6.37 14.879 6.527 15.036 6.72 15.036C9.966 15.036 13.028 14.489 15.575 13.454C17.984 12.475 19.758 11.099 20.603 9.561H21.133C20.738 11.911 19.882 14.028 18.707 15.545C17.478 17.134 16.007 17.973 14.457 17.973H6.22C6.026 17.973 5.869 18.131 5.869 18.325C5.869 18.519 6.026 18.676 6.22 18.676H22.282L22.34 18.675V20.145H22.341ZM22.841 17.415C22.841 17.723 22.591 17.973 22.283 17.973H17.03C19.369 16.65 21.203 13.559 21.847 9.561H22.738C22.773 9.561 22.808 9.559 22.842 9.556V17.415H22.841ZM23.297 8.299C23.297 8.607 23.047 8.858 22.738 8.858H1.262C0.954 8.858 0.703 8.608 0.703 8.299V7.404C0.703 7.096 0.953 6.846 1.262 6.846H17.187C17.381 6.846 17.539 6.689 17.539 6.494C17.539 6.3 17.381 6.143 17.187 6.143H4.39V2.36L5.556 2.943C5.811 3.07 6.096 3.138 6.381 3.138H9.658C9.943 3.138 10.228 3.07 10.483 2.943L11.649 2.36V5.463C11.649 5.657 11.807 5.815 12.001 5.815C12.195 5.815 12.353 5.657 12.353 5.463V2.36L13.519 2.943C13.774 3.07 14.059 3.138 14.344 3.138H17.621C17.906 3.138 18.191 3.07 18.446 2.943L19.612 2.36V6.143H18.519C18.325 6.143 18.168 6.3 18.168 6.494C18.168 6.689 18.325 6.846 18.519 6.846H22.739C23.047 6.846 23.298 7.096 23.298 7.404V8.3L23.297 8.299Z" fill="#1A1A1A"/>
</svg>
